<svg width="513" height="76" viewBox="0 0 513 76" fill="none" xmlns="http://www.w3.org/2000/svg">
<g opacity="0.5">
<rect y="61.0024" width="513" height="14" fill="#8B5E34"/>
<rect x="418" y="47.0024" width="79" height="14" fill="#5E5040"/>
<rect x="410" y="38.0024" width="94" height="9" fill="#D7832F"/>
<rect x="422" y="19.0024" width="70" height="19" fill="#89683F"/>
<rect x="25" y="17.0024" width="12" height="44" fill="#E38F42"/>
<rect x="110" y="49.0024" width="12" height="44" transform="rotate(90 110 49.0024)" fill="#E38F42"/>
<rect x="17.6477" y="16.7026" width="8" height="44" transform="rotate(14.5308 17.6477 16.7026)" fill="#FF9003"/>
<rect x="37" y="32.0024" width="15" height="29" fill="#9C7448"/>
<rect x="102" y="38" width="11" height="29" transform="rotate(90 102 38)" fill="#9C7448"/>
<rect x="47.3024" y="10.2021" width="5" height="52" transform="rotate(-12.799 47.3024 10.2021)" fill="#E3C257"/>
<rect x="61" y="38" width="5" height="52" transform="rotate(-90 61 38)" fill="#E3C257"/>
<path d="M178.33 46.0024L184.057 11.0933H188.83L183.102 46.0024H178.33ZM162.597 37.0024L163.398 32.2297H190.261L189.46 37.0024H162.597ZM166.057 46.0024L171.784 11.0933H176.557L170.83 46.0024H166.057ZM164.625 24.8661L165.409 20.0933H192.273L191.489 24.8661H164.625ZM196.334 46.0024V11.0933H202.658V40.7013H218.033V46.0024H196.334ZM223.249 46.0024V19.8206H229.419V46.0024H223.249ZM226.351 16.1047C225.374 16.1047 224.533 15.7809 223.828 15.1331C223.124 14.474 222.771 13.6843 222.771 12.7638C222.771 11.832 223.124 11.0422 223.828 10.3945C224.533 9.73539 225.374 9.40585 226.351 9.40585C227.339 9.40585 228.18 9.73539 228.874 10.3945C229.578 11.0422 229.93 11.832 229.93 12.7638C229.93 13.6843 229.578 14.474 228.874 15.1331C228.18 15.7809 227.339 16.1047 226.351 16.1047ZM236.037 46.0024V11.0933H242.207V24.1502H242.463C242.781 23.5138 243.23 22.8377 243.81 22.1218C244.389 21.3945 245.173 20.7752 246.162 20.2638C247.151 19.7411 248.412 19.4797 249.946 19.4797C251.969 19.4797 253.793 19.9968 255.418 21.0308C257.054 22.0536 258.349 23.5706 259.304 25.582C260.27 27.582 260.753 30.0365 260.753 32.9456C260.753 35.8206 260.281 38.2638 259.338 40.2752C258.395 42.2865 257.111 43.8206 255.486 44.8774C253.861 45.9343 252.02 46.4627 249.963 46.4627C248.463 46.4627 247.219 46.2127 246.23 45.7127C245.241 45.2127 244.446 44.6104 243.844 43.9059C243.253 43.1899 242.793 42.5138 242.463 41.8774H242.105V46.0024H236.037ZM242.088 32.9115C242.088 34.6047 242.327 36.0877 242.804 37.3604C243.293 38.6331 243.991 39.6274 244.901 40.3434C245.821 41.0479 246.935 41.4002 248.241 41.4002C249.605 41.4002 250.747 41.0365 251.668 40.3093C252.588 39.5706 253.281 38.5649 253.747 37.2922C254.224 36.0081 254.463 34.5479 254.463 32.9115C254.463 31.2865 254.23 29.8433 253.764 28.582C253.298 27.3206 252.605 26.332 251.685 25.6161C250.764 24.9002 249.616 24.5422 248.241 24.5422C246.923 24.5422 245.804 24.8888 244.884 25.582C243.963 26.2752 243.264 27.2468 242.787 28.4968C242.321 29.7468 242.088 31.2183 242.088 32.9115ZM265.999 46.0024V19.8206H271.982V24.1843H272.254C272.732 22.6729 273.55 21.5081 274.709 20.6899C275.879 19.8604 277.214 19.4456 278.714 19.4456C279.055 19.4456 279.436 19.4627 279.857 19.4968C280.288 19.5195 280.646 19.5593 280.93 19.6161V25.2922C280.669 25.2013 280.254 25.1218 279.686 25.0536C279.129 24.974 278.589 24.9343 278.067 24.9343C276.942 24.9343 275.93 25.1786 275.033 25.6672C274.146 26.1445 273.447 26.8093 272.936 27.6615C272.425 28.5138 272.169 29.4968 272.169 30.6104V46.0024H265.999ZM292.095 46.5309C290.436 46.5309 288.942 46.2354 287.612 45.6445C286.294 45.0422 285.249 44.1559 284.476 42.9854C283.714 41.8149 283.334 40.3718 283.334 38.6559C283.334 37.1786 283.607 35.957 284.152 34.9911C284.697 34.0252 285.442 33.2524 286.385 32.6729C287.328 32.0934 288.391 31.6559 289.572 31.3604C290.766 31.0536 291.999 30.832 293.271 30.6956C294.805 30.5365 296.05 30.3945 297.004 30.2695C297.959 30.1331 298.652 29.9286 299.084 29.6558C299.527 29.3718 299.749 28.9343 299.749 28.3433V28.2411C299.749 26.957 299.368 25.9627 298.607 25.2581C297.845 24.5536 296.749 24.2013 295.317 24.2013C293.805 24.2013 292.607 24.5309 291.72 25.1899C290.845 25.849 290.254 26.6274 289.947 27.5252L284.186 26.707C284.641 25.1161 285.391 23.7865 286.436 22.7183C287.482 21.6388 288.76 20.832 290.271 20.2979C291.783 19.7524 293.453 19.4797 295.283 19.4797C296.544 19.4797 297.8 19.6274 299.05 19.9229C300.3 20.2183 301.442 20.707 302.476 21.3888C303.51 22.0593 304.339 22.974 304.964 24.1331C305.601 25.2922 305.919 26.7411 305.919 28.4797V46.0024H299.987V42.4059H299.783C299.408 43.1331 298.879 43.8149 298.197 44.4513C297.527 45.0763 296.68 45.582 295.658 45.9684C294.646 46.3434 293.459 46.5309 292.095 46.5309ZM293.697 41.9968C294.936 41.9968 296.01 41.7524 296.919 41.2638C297.828 40.7638 298.527 40.1047 299.016 39.2865C299.516 38.4684 299.766 37.5763 299.766 36.6104V33.5252C299.572 33.6843 299.243 33.832 298.777 33.9683C298.322 34.1047 297.811 34.224 297.243 34.3263C296.675 34.4286 296.112 34.5195 295.555 34.599C294.999 34.6786 294.516 34.7468 294.107 34.8036C293.186 34.9286 292.362 35.1331 291.635 35.4172C290.908 35.7013 290.334 36.099 289.913 36.6104C289.493 37.1104 289.283 37.7581 289.283 38.5536C289.283 39.6899 289.697 40.5479 290.527 41.1274C291.357 41.707 292.413 41.9968 293.697 41.9968ZM312.124 46.0024V19.8206H318.107V24.1843H318.379C318.857 22.6729 319.675 21.5081 320.834 20.6899C322.004 19.8604 323.339 19.4456 324.839 19.4456C325.18 19.4456 325.561 19.4627 325.982 19.4968C326.413 19.5195 326.771 19.5593 327.055 19.6161V25.2922C326.794 25.2013 326.379 25.1218 325.811 25.0536C325.254 24.974 324.714 24.9343 324.192 24.9343C323.067 24.9343 322.055 25.1786 321.158 25.6672C320.271 26.1445 319.572 26.8093 319.061 27.6615C318.55 28.5138 318.294 29.4968 318.294 30.6104V46.0024H312.124ZM335.787 55.8206C334.946 55.8206 334.168 55.7524 333.452 55.6161C332.747 55.4911 332.185 55.3434 331.764 55.1729L333.196 50.3661C334.094 50.6274 334.895 50.7524 335.599 50.7411C336.304 50.7297 336.923 50.5081 337.457 50.0763C338.003 49.6559 338.463 48.9513 338.838 47.9627L339.366 46.5479L329.872 19.8206H336.418L342.452 39.5934H342.724L348.776 19.8206H355.338L344.855 49.1729C344.366 50.5593 343.719 51.7468 342.912 52.7354C342.105 53.7354 341.116 54.4968 339.946 55.0195C338.787 55.5536 337.401 55.8206 335.787 55.8206Z" fill="black"/>
</g>
</svg>
