<svg width="521" height="98" viewBox="0 0 521 98" fill="none" xmlns="http://www.w3.org/2000/svg">
<g opacity="0.8">
<g filter="url(#filter0_d_1165_6)">
<rect x="4.5" y="76.408" width="512" height="13" fill="#8B5E34" stroke="#504C4C"/>
<rect x="422.5" y="62.408" width="78" height="13" fill="#5E5040" stroke="#504C4C"/>
<rect x="414.5" y="53.408" width="93" height="8" fill="#D7832F" stroke="#504C4C"/>
<rect x="29.5" y="32.408" width="11" height="43" fill="#E38F42" stroke="#504C4C"/>
<rect x="113.5" y="64.408" width="11" height="43" transform="rotate(90 113.5 64.408)" fill="#E38F42" stroke="#504C4C"/>
<rect x="22.006" y="32.2176" width="7" height="43" transform="rotate(14.5308 22.006 32.2176)" fill="#FF9003" stroke="#504C4C"/>
<rect x="41.5" y="47.408" width="14" height="28" fill="#9C7448" stroke="#504C4C"/>
<rect x="105.5" y="53.4055" width="10" height="28" transform="rotate(90 105.5 53.4055)" fill="#9C7448" stroke="#504C4C"/>
<rect x="51.9006" y="25.4845" width="4" height="51" transform="rotate(-12.799 51.9006 25.4845)" fill="#E3C257" stroke="#504C4C"/>
<rect x="65.5" y="52.4055" width="4" height="51" transform="rotate(-90 65.5 52.4055)" fill="#E3C257" stroke="#504C4C"/>
<path d="M159.04 52.2H155.104L153.568 60.216H150.64L152.176 52.2H149.152L149.776 49.32H152.704L154 42.6H151.072L151.696 39.72H154.576L156.016 32.184H158.944L157.504 39.72H161.44L162.928 32.184H165.856L164.416 39.72H167.344L166.672 42.6H163.84L162.544 49.32H165.424L164.752 52.2H162.016L160.48 60.216H157.504L159.04 52.2ZM155.632 49.32H159.616L160.912 42.6H156.928L155.632 49.32ZM188.857 63H172.681V29.4H176.281V59.688H188.857V63ZM192.939 39H196.395V63H192.939V39ZM192.315 31.704C192.315 30.936 192.523 30.312 192.939 29.832C193.387 29.352 193.963 29.112 194.667 29.112C195.371 29.112 195.947 29.352 196.395 29.832C196.875 30.28 197.115 30.904 197.115 31.704C197.115 32.472 196.875 33.08 196.395 33.528C195.947 33.944 195.371 34.152 194.667 34.152C193.963 34.152 193.387 33.928 192.939 33.48C192.523 33.032 192.315 32.44 192.315 31.704ZM202.77 29.4H206.226V40.824H206.37C207.682 39.224 209.426 38.424 211.602 38.424C214.066 38.424 215.906 39.4 217.122 41.352C218.37 43.304 218.994 46.392 218.994 50.616C218.994 54.936 218.162 58.152 216.498 60.264C214.866 62.376 212.546 63.432 209.538 63.432C208.066 63.432 206.722 63.272 205.506 62.952C204.29 62.6 203.378 62.2 202.77 61.752V29.4ZM206.226 59.496C206.674 59.752 207.218 59.96 207.858 60.12C208.53 60.248 209.234 60.312 209.97 60.312C211.634 60.312 212.946 59.528 213.906 57.96C214.898 56.36 215.394 53.912 215.394 50.616C215.394 49.24 215.298 48.008 215.106 46.92C214.946 45.8 214.674 44.84 214.29 44.04C213.938 43.24 213.458 42.632 212.85 42.216C212.274 41.768 211.57 41.544 210.738 41.544C209.586 41.544 208.626 41.896 207.858 42.6C207.122 43.272 206.578 44.2 206.226 45.384V59.496ZM223.582 39H226.03L226.654 41.544H226.798C227.246 40.616 227.822 39.896 228.526 39.384C229.262 38.84 230.142 38.568 231.166 38.568C231.902 38.568 232.734 38.712 233.662 39L232.99 42.504C232.158 42.216 231.422 42.072 230.782 42.072C229.758 42.072 228.926 42.376 228.286 42.984C227.646 43.56 227.23 44.344 227.038 45.336V63H223.582V39ZM236.514 40.44C237.442 39.864 238.562 39.416 239.874 39.096C241.218 38.776 242.626 38.616 244.098 38.616C245.442 38.616 246.514 38.824 247.314 39.24C248.146 39.624 248.786 40.168 249.234 40.872C249.714 41.544 250.018 42.328 250.146 43.224C250.306 44.088 250.386 45 250.386 45.96C250.386 47.88 250.338 49.752 250.242 51.576C250.178 53.4 250.146 55.128 250.146 56.76C250.146 57.976 250.178 59.112 250.242 60.168C250.338 61.192 250.498 62.168 250.722 63.096H248.082L247.266 60.264H247.074C246.594 61.096 245.89 61.816 244.962 62.424C244.034 63.032 242.786 63.336 241.218 63.336C239.49 63.336 238.066 62.744 236.946 61.56C235.858 60.344 235.314 58.68 235.314 56.568C235.314 55.192 235.538 54.04 235.986 53.112C236.466 52.184 237.122 51.432 237.954 50.856C238.818 50.28 239.826 49.88 240.978 49.656C242.162 49.4 243.474 49.272 244.914 49.272C245.234 49.272 245.554 49.272 245.874 49.272C246.194 49.272 246.53 49.288 246.882 49.32C246.978 48.328 247.026 47.448 247.026 46.68C247.026 44.856 246.754 43.576 246.21 42.84C245.666 42.104 244.674 41.736 243.234 41.736C242.338 41.736 241.362 41.88 240.306 42.168C239.25 42.424 238.37 42.76 237.666 43.176L236.514 40.44ZM246.93 52.056C246.61 52.024 246.29 52.008 245.97 52.008C245.65 51.976 245.33 51.96 245.01 51.96C244.242 51.96 243.49 52.024 242.754 52.152C242.018 52.28 241.362 52.504 240.786 52.824C240.21 53.144 239.746 53.576 239.394 54.12C239.074 54.664 238.914 55.352 238.914 56.184C238.914 57.464 239.218 58.456 239.826 59.16C240.466 59.864 241.282 60.216 242.274 60.216C243.618 60.216 244.658 59.896 245.394 59.256C246.13 58.616 246.642 57.912 246.93 57.144V52.056ZM255.973 39H258.421L259.045 41.544H259.189C259.637 40.616 260.213 39.896 260.917 39.384C261.653 38.84 262.533 38.568 263.557 38.568C264.293 38.568 265.125 38.712 266.053 39L265.381 42.504C264.549 42.216 263.813 42.072 263.173 42.072C262.149 42.072 261.317 42.376 260.677 42.984C260.037 43.56 259.621 44.344 259.429 45.336V63H255.973V39ZM275.097 54.504L276.105 59.16H276.345L277.065 54.504L280.713 39H284.217L278.505 60.552C278.057 62.28 277.609 63.896 277.161 65.4C276.713 66.904 276.217 68.2 275.673 69.288C275.161 70.408 274.569 71.272 273.897 71.88C273.257 72.52 272.489 72.84 271.593 72.84C270.697 72.84 269.913 72.696 269.241 72.408L269.817 69.144C270.265 69.304 270.713 69.336 271.161 69.24C271.609 69.144 272.025 68.872 272.409 68.424C272.825 67.976 273.193 67.304 273.513 66.408C273.865 65.544 274.169 64.408 274.425 63L266.649 39H270.585L275.097 54.504ZM295.189 46.2C295.189 40.504 296.101 36.184 297.925 33.24C299.749 30.296 302.533 28.824 306.277 28.824C308.293 28.824 310.005 29.24 311.413 30.072C312.821 30.872 313.957 32.024 314.821 33.528C315.717 35.032 316.373 36.856 316.789 39C317.205 41.144 317.413 43.544 317.413 46.2C317.413 51.896 316.485 56.216 314.629 59.16C312.805 62.104 310.021 63.576 306.277 63.576C304.293 63.576 302.597 63.176 301.189 62.376C299.781 61.544 298.629 60.376 297.733 58.872C296.837 57.368 296.181 55.544 295.765 53.4C295.381 51.256 295.189 48.856 295.189 46.2ZM298.981 46.2C298.981 48.088 299.109 49.88 299.365 51.576C299.653 53.272 300.085 54.76 300.661 56.04C301.237 57.32 301.989 58.344 302.917 59.112C303.845 59.88 304.965 60.264 306.277 60.264C308.677 60.264 310.501 59.112 311.749 56.808C312.997 54.504 313.621 50.968 313.621 46.2C313.621 44.344 313.477 42.568 313.189 40.872C312.933 39.176 312.517 37.688 311.941 36.408C311.365 35.096 310.613 34.056 309.685 33.288C308.757 32.52 307.621 32.136 306.277 32.136C303.909 32.136 302.101 33.288 300.853 35.592C299.605 37.896 298.981 41.432 298.981 46.2ZM327.677 41.688L325.613 36.408H325.469L325.997 41.688V63H322.541V28.872H324.701L337.133 50.664L339.101 55.704H339.293L338.765 50.664V29.4H342.221V63.528H340.013L327.677 41.688ZM366.081 32.712H357.825V63H354.225V32.712H345.969V29.4H366.081V32.712ZM385.246 29.4H388.702V51.912C388.702 55.976 387.902 58.92 386.302 60.744C384.734 62.536 382.494 63.432 379.582 63.432C376.19 63.432 373.71 62.552 372.142 60.792C370.606 59.032 369.838 56.328 369.838 52.68V29.4H373.438V50.808C373.438 52.536 373.55 53.992 373.774 55.176C373.998 56.36 374.366 57.32 374.878 58.056C375.39 58.792 376.03 59.32 376.798 59.64C377.566 59.96 378.51 60.12 379.63 60.12C381.742 60.12 383.198 59.384 383.998 57.912C384.83 56.44 385.246 54.072 385.246 50.808V29.4Z" fill="black"/>
<path d="M159.04 52.2L160.022 52.3882L160.25 51.2H159.04V52.2ZM155.104 52.2V51.2H154.277L154.122 52.0118L155.104 52.2ZM153.568 60.216V61.216H154.395L154.55 60.4042L153.568 60.216ZM150.64 60.216L149.658 60.0278L149.43 61.216H150.64V60.216ZM152.176 52.2L153.158 52.3882L153.386 51.2H152.176V52.2ZM149.152 52.2L148.175 51.9882L147.912 53.2H149.152V52.2ZM149.776 49.32V48.32H148.969L148.799 49.1082L149.776 49.32ZM152.704 49.32V50.32H153.53L153.686 49.5094L152.704 49.32ZM154 42.6L154.982 42.7894L155.211 41.6H154V42.6ZM151.072 42.6L150.095 42.3882L149.832 43.6H151.072V42.6ZM151.696 39.72V38.72H150.889L150.719 39.5082L151.696 39.72ZM154.576 39.72V40.72H155.403L155.558 39.9077L154.576 39.72ZM156.016 32.184V31.184H155.189L155.034 31.9963L156.016 32.184ZM158.944 32.184L159.926 32.3717L160.153 31.184H158.944V32.184ZM157.504 39.72L156.522 39.5323L156.295 40.72H157.504V39.72ZM161.44 39.72V40.72H162.262L162.421 39.9137L161.44 39.72ZM162.928 32.184V31.184H162.106L161.947 31.9903L162.928 32.184ZM165.856 32.184L166.838 32.3717L167.065 31.184H165.856V32.184ZM164.416 39.72L163.434 39.5323L163.207 40.72H164.416V39.72ZM167.344 39.72L168.318 39.9472L168.604 38.72H167.344V39.72ZM166.672 42.6V43.6H167.466L167.646 42.8272L166.672 42.6ZM163.84 42.6V41.6H163.014L162.858 42.4106L163.84 42.6ZM162.544 49.32L161.562 49.1306L161.333 50.32H162.544V49.32ZM165.424 49.32L166.398 49.5472L166.684 48.32H165.424V49.32ZM164.752 52.2V53.2H165.546L165.726 52.4272L164.752 52.2ZM162.016 52.2V51.2H161.189L161.034 52.0118L162.016 52.2ZM160.48 60.216V61.216H161.307L161.462 60.4042L160.48 60.216ZM157.504 60.216L156.522 60.0278L156.294 61.216H157.504V60.216ZM155.632 49.32L154.65 49.1306L154.421 50.32H155.632V49.32ZM159.616 49.32V50.32H160.442L160.598 49.5094L159.616 49.32ZM160.912 42.6L161.894 42.7894L162.123 41.6H160.912V42.6ZM156.928 42.6V41.6H156.102L155.946 42.4106L156.928 42.6ZM159.04 51.2H155.104V53.2H159.04V51.2ZM154.122 52.0118L152.586 60.0278L154.55 60.4042L156.086 52.3882L154.122 52.0118ZM153.568 59.216H150.64V61.216H153.568V59.216ZM151.622 60.4042L153.158 52.3882L151.194 52.0118L149.658 60.0278L151.622 60.4042ZM152.176 51.2H149.152V53.2H152.176V51.2ZM150.129 52.4118L150.753 49.5318L148.799 49.1082L148.175 51.9882L150.129 52.4118ZM149.776 50.32H152.704V48.32H149.776V50.32ZM153.686 49.5094L154.982 42.7894L153.018 42.4106L151.722 49.1306L153.686 49.5094ZM154 41.6H151.072V43.6H154V41.6ZM152.049 42.8118L152.673 39.9318L150.719 39.5082L150.095 42.3882L152.049 42.8118ZM151.696 40.72H154.576V38.72H151.696V40.72ZM155.558 39.9077L156.998 32.3717L155.034 31.9963L153.594 39.5323L155.558 39.9077ZM156.016 33.184H158.944V31.184H156.016V33.184ZM157.962 31.9963L156.522 39.5323L158.486 39.9077L159.926 32.3717L157.962 31.9963ZM157.504 40.72H161.44V38.72H157.504V40.72ZM162.421 39.9137L163.909 32.3777L161.947 31.9903L160.459 39.5263L162.421 39.9137ZM162.928 33.184H165.856V31.184H162.928V33.184ZM164.874 31.9963L163.434 39.5323L165.398 39.9077L166.838 32.3717L164.874 31.9963ZM164.416 40.72H167.344V38.72H164.416V40.72ZM166.37 39.4928L165.698 42.3728L167.646 42.8272L168.318 39.9472L166.37 39.4928ZM166.672 41.6H163.84V43.6H166.672V41.6ZM162.858 42.4106L161.562 49.1306L163.526 49.5094L164.822 42.7894L162.858 42.4106ZM162.544 50.32H165.424V48.32H162.544V50.32ZM164.45 49.0928L163.778 51.9728L165.726 52.4272L166.398 49.5472L164.45 49.0928ZM164.752 51.2H162.016V53.2H164.752V51.2ZM161.034 52.0118L159.498 60.0278L161.462 60.4042L162.998 52.3882L161.034 52.0118ZM160.48 59.216H157.504V61.216H160.48V59.216ZM158.486 60.4042L160.022 52.3882L158.058 52.0118L156.522 60.0278L158.486 60.4042ZM155.632 50.32H159.616V48.32H155.632V50.32ZM160.598 49.5094L161.894 42.7894L159.93 42.4106L158.634 49.1306L160.598 49.5094ZM160.912 41.6H156.928V43.6H160.912V41.6ZM155.946 42.4106L154.65 49.1306L156.614 49.5094L157.91 42.7894L155.946 42.4106ZM188.857 63V64H189.857V63H188.857ZM172.681 63H171.681V64H172.681V63ZM172.681 29.4V28.4H171.681V29.4H172.681ZM176.281 29.4H177.281V28.4H176.281V29.4ZM176.281 59.688H175.281V60.688H176.281V59.688ZM188.857 59.688H189.857V58.688H188.857V59.688ZM188.857 62H172.681V64H188.857V62ZM173.681 63V29.4H171.681V63H173.681ZM172.681 30.4H176.281V28.4H172.681V30.4ZM175.281 29.4V59.688H177.281V29.4H175.281ZM176.281 60.688H188.857V58.688H176.281V60.688ZM187.857 59.688V63H189.857V59.688H187.857ZM192.939 39V38H191.939V39H192.939ZM196.395 39H197.395V38H196.395V39ZM196.395 63V64H197.395V63H196.395ZM192.939 63H191.939V64H192.939V63ZM192.939 29.832L192.208 29.1497L192.196 29.1631L192.184 29.1771L192.939 29.832ZM196.395 29.832L195.664 30.5143L195.688 30.5395L195.713 30.5631L196.395 29.832ZM196.395 33.528L197.076 34.2608L197.078 34.2591L196.395 33.528ZM192.939 33.48L192.206 34.1605L192.219 34.174L192.232 34.1871L192.939 33.48ZM192.939 40H196.395V38H192.939V40ZM195.395 39V63H197.395V39H195.395ZM196.395 62H192.939V64H196.395V62ZM193.939 63V39H191.939V63H193.939ZM193.315 31.704C193.315 31.124 193.468 30.749 193.695 30.4869L192.184 29.1771C191.579 29.875 191.315 30.748 191.315 31.704H193.315ZM193.67 30.5143C193.914 30.2528 194.218 30.112 194.667 30.112V28.112C193.708 28.112 192.86 28.4512 192.208 29.1497L193.67 30.5143ZM194.667 30.112C195.116 30.112 195.42 30.2528 195.664 30.5143L197.126 29.1497C196.474 28.4512 195.626 28.112 194.667 28.112V30.112ZM195.713 30.5631C195.947 30.7816 196.115 31.116 196.115 31.704H198.115C198.115 30.692 197.803 29.7784 197.078 29.1009L195.713 30.5631ZM196.115 31.704C196.115 32.2461 195.956 32.5704 195.713 32.7969L197.078 34.2591C197.795 33.5896 198.115 32.6979 198.115 31.704H196.115ZM195.715 32.7952C195.48 33.0135 195.16 33.152 194.667 33.152V35.152C195.583 35.152 196.415 34.8745 197.076 34.2608L195.715 32.7952ZM194.667 33.152C194.196 33.152 193.885 33.0117 193.646 32.7729L192.232 34.1871C192.889 34.8443 193.73 35.152 194.667 35.152V33.152ZM193.672 32.7995C193.462 32.5729 193.315 32.242 193.315 31.704H191.315C191.315 32.638 191.585 33.4911 192.206 34.1605L193.672 32.7995ZM202.77 29.4V28.4H201.77V29.4H202.77ZM206.226 29.4H207.226V28.4H206.226V29.4ZM206.226 40.824H205.226V41.824H206.226V40.824ZM206.37 40.824V41.824H206.843L207.143 41.4581L206.37 40.824ZM217.122 41.352L216.273 41.8808L216.279 41.8907L217.122 41.352ZM216.498 60.264L215.712 59.6451L215.706 59.6526L216.498 60.264ZM205.506 62.952L205.227 63.9126L205.239 63.916L205.251 63.9191L205.506 62.952ZM202.77 61.752H201.77V62.2573L202.176 62.5571L202.77 61.752ZM206.226 59.496H205.226V60.0763L205.729 60.3642L206.226 59.496ZM207.858 60.12L207.615 61.0901L207.643 61.097L207.67 61.1023L207.858 60.12ZM213.906 57.96L213.056 57.4331L213.053 57.4378L213.906 57.96ZM215.106 46.92L214.116 47.0614L214.118 47.0776L214.121 47.0938L215.106 46.92ZM214.29 44.04L213.374 44.4427L213.381 44.4578L213.388 44.4727L214.29 44.04ZM212.85 42.216L212.236 43.0054L212.26 43.0241L212.285 43.0413L212.85 42.216ZM207.858 42.6L208.532 43.3385L208.533 43.3372L207.858 42.6ZM206.226 45.384L205.267 45.099L205.226 45.2385V45.384H206.226ZM202.77 30.4H206.226V28.4H202.77V30.4ZM205.226 29.4V40.824H207.226V29.4H205.226ZM206.226 41.824H206.37V39.824H206.226V41.824ZM207.143 41.4581C208.254 40.1031 209.707 39.424 211.602 39.424V37.424C209.144 37.424 207.109 38.3449 205.596 40.1899L207.143 41.4581ZM211.602 39.424C213.75 39.424 215.254 40.2462 216.273 41.8807L217.97 40.8233C216.557 38.5538 214.381 37.424 211.602 37.424V39.424ZM216.279 41.8907C217.37 43.5969 217.994 46.4477 217.994 50.616H219.994C219.994 46.3362 219.369 43.0111 217.964 40.8133L216.279 41.8907ZM217.994 50.616C217.994 54.8381 217.175 57.7883 215.712 59.6451L217.283 60.8829C219.148 58.5157 219.994 55.0339 219.994 50.616H217.994ZM215.706 59.6526C214.289 61.4861 212.281 62.432 209.538 62.432V64.432C212.81 64.432 215.442 63.2659 217.289 60.8754L215.706 59.6526ZM209.538 62.432C208.137 62.432 206.88 62.2797 205.76 61.9849L205.251 63.9191C206.563 64.2643 207.994 64.432 209.538 64.432V62.432ZM205.784 61.9914C204.615 61.6532 203.833 61.2933 203.363 60.9469L202.176 62.5571C202.922 63.1067 203.964 63.5468 205.227 63.9126L205.784 61.9914ZM203.77 61.752V29.4H201.77V61.752H203.77ZM205.729 60.3642C206.275 60.6762 206.91 60.9138 207.615 61.0901L208.1 59.1499C207.525 59.0062 207.072 58.8278 206.722 58.6278L205.729 60.3642ZM207.67 61.1023C208.409 61.2429 209.175 61.312 209.97 61.312V59.312C209.292 59.312 208.65 59.2531 208.045 59.1377L207.67 61.1023ZM209.97 61.312C212.023 61.312 213.639 60.3097 214.758 58.4822L213.053 57.4378C212.252 58.7463 211.244 59.312 209.97 59.312V61.312ZM214.755 58.4869C215.894 56.6498 216.394 53.9761 216.394 50.616H214.394C214.394 53.8479 213.901 56.0702 213.056 57.4331L214.755 58.4869ZM216.394 50.616C216.394 49.1952 216.295 47.9035 216.09 46.7462L214.121 47.0938C214.3 48.1125 214.394 49.2847 214.394 50.616H216.394ZM216.095 46.7786C215.925 45.5839 215.629 44.5206 215.191 43.6073L213.388 44.4727C213.718 45.1594 213.966 46.0161 214.116 47.0614L216.095 46.7786ZM215.205 43.6373C214.792 42.6986 214.203 41.9303 213.414 41.3907L212.285 43.0413C212.712 43.3337 213.083 43.7813 213.374 44.4427L215.205 43.6373ZM213.463 41.4266C212.688 40.8233 211.759 40.544 210.738 40.544V42.544C211.38 42.544 211.859 42.7127 212.236 43.0054L213.463 41.4266ZM210.738 40.544C209.364 40.544 208.154 40.9714 207.182 41.8628L208.533 43.3372C209.097 42.8206 209.807 42.544 210.738 42.544V40.544ZM207.183 41.8615C206.284 42.6823 205.658 43.7823 205.267 45.099L207.184 45.669C207.497 44.6177 207.959 43.8617 208.532 43.3385L207.183 41.8615ZM205.226 45.384V59.496H207.226V45.384H205.226ZM223.582 39V38H222.582V39H223.582ZM226.03 39L227.001 38.7618L226.814 38H226.03V39ZM226.654 41.544L225.683 41.7822L225.87 42.544H226.654V41.544ZM226.798 41.544V42.544H227.426L227.699 41.9787L226.798 41.544ZM228.526 39.384L229.114 40.1928L229.12 40.1882L228.526 39.384ZM233.662 39L234.644 39.1883L234.813 38.31L233.958 38.0449L233.662 39ZM232.99 42.504L232.663 43.449L233.755 43.8269L233.972 42.6923L232.99 42.504ZM228.286 42.984L228.955 43.7273L228.965 43.7183L228.975 43.709L228.286 42.984ZM227.038 45.336L226.056 45.146L226.038 45.2401V45.336H227.038ZM227.038 63V64H228.038V63H227.038ZM223.582 63H222.582V64H223.582V63ZM223.582 40H226.03V38H223.582V40ZM225.059 39.2382L225.683 41.7822L227.625 41.3058L227.001 38.7618L225.059 39.2382ZM226.654 42.544H226.798V40.544H226.654V42.544ZM227.699 41.9787C228.088 41.172 228.566 40.5914 229.114 40.1927L227.938 38.5753C227.078 39.2006 226.404 40.06 225.897 41.1092L227.699 41.9787ZM229.12 40.1882C229.664 39.7863 230.329 39.568 231.166 39.568V37.568C229.955 37.568 228.86 37.8937 227.932 38.5798L229.12 40.1882ZM231.166 39.568C231.775 39.568 232.505 39.6879 233.366 39.9551L233.958 38.0449C232.963 37.7361 232.029 37.568 231.166 37.568V39.568ZM232.68 38.8117L232.008 42.3157L233.972 42.6923L234.644 39.1883L232.68 38.8117ZM233.317 41.559C232.417 41.2473 231.566 41.072 230.782 41.072V43.072C231.278 43.072 231.899 43.1847 232.663 43.449L233.317 41.559ZM230.782 41.072C229.546 41.072 228.453 41.4463 227.597 42.259L228.975 43.709C229.399 43.3057 229.97 43.072 230.782 43.072V41.072ZM227.617 42.2407C226.789 42.9864 226.282 43.9788 226.056 45.146L228.02 45.526C228.178 44.7092 228.503 44.1336 228.955 43.7273L227.617 42.2407ZM226.038 45.336V63H228.038V45.336H226.038ZM227.038 62H223.582V64H227.038V62ZM224.582 63V39H222.582V63H224.582ZM236.514 40.44L235.987 39.5904L235.261 40.0408L235.592 40.8281L236.514 40.44ZM239.874 39.096L239.642 38.1232L239.637 38.1245L239.874 39.096ZM247.314 39.24L246.853 40.1272L246.873 40.1381L246.895 40.148L247.314 39.24ZM249.234 40.872L248.39 41.4089L248.405 41.4315L248.42 41.4532L249.234 40.872ZM250.146 43.224L249.156 43.3654L249.159 43.3858L249.163 43.4061L250.146 43.224ZM250.242 51.576L249.243 51.5234L249.243 51.5322L249.242 51.5409L250.242 51.576ZM250.242 60.168L249.244 60.2285L249.245 60.2449L249.246 60.2613L250.242 60.168ZM250.722 63.096V64.096H251.992L251.694 62.8614L250.722 63.096ZM248.082 63.096L247.121 63.3729L247.329 64.096H248.082V63.096ZM247.266 60.264L248.227 59.9871L248.018 59.264H247.266V60.264ZM247.074 60.264V59.264H246.496L246.208 59.7643L247.074 60.264ZM244.962 62.424L245.51 63.2605L245.51 63.2605L244.962 62.424ZM236.946 61.56L236.201 62.2268L236.21 62.2371L236.219 62.2472L236.946 61.56ZM235.986 53.112L235.098 52.6526L235.091 52.6648L235.085 52.6773L235.986 53.112ZM237.954 50.856L237.399 50.0239L237.392 50.0288L237.385 50.0338L237.954 50.856ZM240.978 49.656L241.169 50.6376L241.179 50.6356L241.189 50.6334L240.978 49.656ZM246.882 49.32L246.791 50.3159L247.781 50.4059L247.877 49.4163L246.882 49.32ZM246.21 42.84L247.014 42.2456L247.014 42.2456L246.21 42.84ZM240.306 42.168L240.541 43.1398L240.555 43.1365L240.569 43.1328L240.306 42.168ZM237.666 43.176L236.744 43.5641L237.189 44.6195L238.175 44.0369L237.666 43.176ZM246.93 52.056H247.93V51.151L247.029 51.061L246.93 52.056ZM245.97 52.008L245.87 53.003L245.92 53.008H245.97V52.008ZM239.394 54.12L238.554 53.5767L238.543 53.5946L238.532 53.613L239.394 54.12ZM239.826 59.16L239.069 59.8136L239.077 59.8233L239.086 59.8327L239.826 59.16ZM245.394 59.256L244.738 58.5014L244.738 58.5014L245.394 59.256ZM246.93 57.144L247.866 57.4951L247.93 57.3253V57.144H246.93ZM237.041 41.2896C237.861 40.7807 238.878 40.3682 240.111 40.0675L239.637 38.1245C238.246 38.4638 237.023 38.9473 235.987 39.5904L237.041 41.2896ZM240.105 40.0688C241.369 39.768 242.699 39.616 244.098 39.616V37.616C242.553 37.616 241.067 37.784 239.642 38.1232L240.105 40.0688ZM244.098 39.616C245.354 39.616 246.248 39.8128 246.853 40.1272L247.775 38.3528C246.78 37.8352 245.53 37.616 244.098 37.616V39.616ZM246.895 40.148C247.57 40.4597 248.055 40.8825 248.39 41.4089L250.078 40.3351C249.517 39.4535 248.721 38.7883 247.733 38.332L246.895 40.148ZM248.42 41.4532C248.798 41.9827 249.048 42.6125 249.156 43.3654L251.136 43.0826C250.987 42.0435 250.629 41.1053 250.048 40.2908L248.42 41.4532ZM249.163 43.4061C249.311 44.2048 249.386 45.0555 249.386 45.96H251.386C251.386 44.9445 251.301 43.9712 251.129 43.0419L249.163 43.4061ZM249.386 45.96C249.386 47.8634 249.338 49.7178 249.243 51.5234L251.24 51.6286C251.337 49.7862 251.386 47.8966 251.386 45.96H249.386ZM249.242 51.5409C249.178 53.3753 249.146 55.115 249.146 56.76H251.146C251.146 55.141 251.178 53.4247 251.241 51.6111L249.242 51.5409ZM249.146 56.76C249.146 57.9933 249.178 59.1496 249.244 60.2285L251.24 60.1075C251.177 59.0744 251.146 57.9587 251.146 56.76H249.146ZM249.246 60.2613C249.346 61.3293 249.514 62.3528 249.75 63.3306L251.694 62.8614C251.482 61.9832 251.329 61.0547 251.238 60.0747L249.246 60.2613ZM250.722 62.096H248.082V64.096H250.722V62.096ZM249.043 62.8191L248.227 59.9871L246.305 60.5409L247.121 63.3729L249.043 62.8191ZM247.266 59.264H247.074V61.264H247.266V59.264ZM246.208 59.7643C245.817 60.4411 245.231 61.052 244.414 61.5875L245.51 63.2605C246.549 62.58 247.371 61.7509 247.94 60.7637L246.208 59.7643ZM244.414 61.5875C243.703 62.0532 242.668 62.336 241.218 62.336V64.336C242.903 64.336 244.365 64.0108 245.51 63.2605L244.414 61.5875ZM241.218 62.336C239.746 62.336 238.591 61.844 237.672 60.8728L236.219 62.2472C237.541 63.644 239.234 64.336 241.218 64.336V62.336ZM237.691 60.8932C236.811 59.9093 236.314 58.5083 236.314 56.568H234.314C234.314 58.8517 234.905 60.7787 236.201 62.2268L237.691 60.8932ZM236.314 56.568C236.314 55.2944 236.522 54.3016 236.886 53.5467L235.085 52.6773C234.554 53.7784 234.314 55.0896 234.314 56.568H236.314ZM236.874 53.5714C237.282 52.7837 237.83 52.1581 238.523 51.6782L237.385 50.0338C236.414 50.7059 235.65 51.5843 235.098 52.6526L236.874 53.5714ZM238.509 51.688C239.249 51.1945 240.13 50.8396 241.169 50.6376L240.787 48.6744C239.522 48.9204 238.387 49.3655 237.399 50.0239L238.509 51.688ZM241.189 50.6334C242.292 50.3949 243.532 50.272 244.914 50.272V48.272C243.416 48.272 242.032 48.4051 240.767 48.6786L241.189 50.6334ZM244.914 50.272C244.915 50.272 244.915 50.272 244.916 50.272C244.916 50.272 244.917 50.272 244.918 50.272C244.918 50.272 244.919 50.272 244.92 50.272C244.92 50.272 244.921 50.272 244.921 50.272C244.922 50.272 244.923 50.272 244.923 50.272C244.924 50.272 244.925 50.272 244.925 50.272C244.926 50.272 244.926 50.272 244.927 50.272C244.928 50.272 244.928 50.272 244.929 50.272C244.93 50.272 244.93 50.272 244.931 50.272C244.931 50.272 244.932 50.272 244.933 50.272C244.933 50.272 244.934 50.272 244.935 50.272C244.935 50.272 244.936 50.272 244.936 50.272C244.937 50.272 244.938 50.272 244.938 50.272C244.939 50.272 244.94 50.272 244.94 50.272C244.941 50.272 244.941 50.272 244.942 50.272C244.943 50.272 244.943 50.272 244.944 50.272C244.945 50.272 244.945 50.272 244.946 50.272C244.946 50.272 244.947 50.272 244.948 50.272C244.948 50.272 244.949 50.272 244.95 50.272C244.95 50.272 244.951 50.272 244.951 50.272C244.952 50.272 244.953 50.272 244.953 50.272C244.954 50.272 244.955 50.272 244.955 50.272C244.956 50.272 244.956 50.272 244.957 50.272C244.958 50.272 244.958 50.272 244.959 50.272C244.96 50.272 244.96 50.272 244.961 50.272C244.961 50.272 244.962 50.272 244.963 50.272C244.963 50.272 244.964 50.272 244.965 50.272C244.965 50.272 244.966 50.272 244.966 50.272C244.967 50.272 244.968 50.272 244.968 50.272C244.969 50.272 244.97 50.272 244.97 50.272C244.971 50.272 244.971 50.272 244.972 50.272C244.973 50.272 244.973 50.272 244.974 50.272C244.975 50.272 244.975 50.272 244.976 50.272C244.976 50.272 244.977 50.272 244.978 50.272C244.978 50.272 244.979 50.272 244.98 50.272C244.98 50.272 244.981 50.272 244.981 50.272C244.982 50.272 244.983 50.272 244.983 50.272C244.984 50.272 244.985 50.272 244.985 50.272C244.986 50.272 244.986 50.272 244.987 50.272C244.988 50.272 244.988 50.272 244.989 50.272C244.99 50.272 244.99 50.272 244.991 50.272C244.991 50.272 244.992 50.272 244.993 50.272C244.993 50.272 244.994 50.272 244.995 50.272C244.995 50.272 244.996 50.272 244.996 50.272C244.997 50.272 244.998 50.272 244.998 50.272C244.999 50.272 245 50.272 245 50.272C245.001 50.272 245.001 50.272 245.002 50.272C245.003 50.272 245.003 50.272 245.004 50.272C245.005 50.272 245.005 50.272 245.006 50.272C245.006 50.272 245.007 50.272 245.008 50.272C245.008 50.272 245.009 50.272 245.01 50.272C245.01 50.272 245.011 50.272 245.011 50.272C245.012 50.272 245.013 50.272 245.013 50.272C245.014 50.272 245.015 50.272 245.015 50.272C245.016 50.272 245.016 50.272 245.017 50.272C245.018 50.272 245.018 50.272 245.019 50.272C245.02 50.272 245.02 50.272 245.021 50.272C245.021 50.272 245.022 50.272 245.023 50.272C245.023 50.272 245.024 50.272 245.025 50.272C245.025 50.272 245.026 50.272 245.026 50.272C245.027 50.272 245.028 50.272 245.028 50.272C245.029 50.272 245.03 50.272 245.03 50.272C245.031 50.272 245.031 50.272 245.032 50.272C245.033 50.272 245.033 50.272 245.034 50.272C245.035 50.272 245.035 50.272 245.036 50.272C245.036 50.272 245.037 50.272 245.038 50.272C245.038 50.272 245.039 50.272 245.04 50.272C245.04 50.272 245.041 50.272 245.041 50.272C245.042 50.272 245.043 50.272 245.043 50.272C245.044 50.272 245.045 50.272 245.045 50.272C245.046 50.272 245.046 50.272 245.047 50.272C245.048 50.272 245.048 50.272 245.049 50.272C245.05 50.272 245.05 50.272 245.051 50.272C245.051 50.272 245.052 50.272 245.053 50.272C245.053 50.272 245.054 50.272 245.055 50.272C245.055 50.272 245.056 50.272 245.056 50.272C245.057 50.272 245.058 50.272 245.058 50.272C245.059 50.272 245.06 50.272 245.06 50.272C245.061 50.272 245.061 50.272 245.062 50.272C245.063 50.272 245.063 50.272 245.064 50.272C245.065 50.272 245.065 50.272 245.066 50.272C245.066 50.272 245.067 50.272 245.068 50.272C245.068 50.272 245.069 50.272 245.07 50.272C245.07 50.272 245.071 50.272 245.071 50.272C245.072 50.272 245.073 50.272 245.073 50.272C245.074 50.272 245.075 50.272 245.075 50.272C245.076 50.272 245.076 50.272 245.077 50.272C245.078 50.272 245.078 50.272 245.079 50.272C245.08 50.272 245.08 50.272 245.081 50.272C245.081 50.272 245.082 50.272 245.083 50.272C245.083 50.272 245.084 50.272 245.085 50.272C245.085 50.272 245.086 50.272 245.086 50.272C245.087 50.272 245.088 50.272 245.088 50.272C245.089 50.272 245.09 50.272 245.09 50.272C245.091 50.272 245.091 50.272 245.092 50.272C245.093 50.272 245.093 50.272 245.094 50.272C245.095 50.272 245.095 50.272 245.096 50.272C245.096 50.272 245.097 50.272 245.098 50.272C245.098 50.272 245.099 50.272 245.1 50.272C245.1 50.272 245.101 50.272 245.101 50.272C245.102 50.272 245.103 50.272 245.103 50.272C245.104 50.272 245.105 50.272 245.105 50.272C245.106 50.272 245.106 50.272 245.107 50.272C245.108 50.272 245.108 50.272 245.109 50.272C245.11 50.272 245.11 50.272 245.111 50.272C245.111 50.272 245.112 50.272 245.113 50.272C245.113 50.272 245.114 50.272 245.115 50.272C245.115 50.272 245.116 50.272 245.116 50.272C245.117 50.272 245.118 50.272 245.118 50.272C245.119 50.272 245.12 50.272 245.12 50.272C245.121 50.272 245.121 50.272 245.122 50.272C245.123 50.272 245.123 50.272 245.124 50.272C245.125 50.272 245.125 50.272 245.126 50.272C245.126 50.272 245.127 50.272 245.128 50.272C245.128 50.272 245.129 50.272 245.13 50.272C245.13 50.272 245.131 50.272 245.131 50.272C245.132 50.272 245.133 50.272 245.133 50.272C245.134 50.272 245.135 50.272 245.135 50.272C245.136 50.272 245.136 50.272 245.137 50.272C245.138 50.272 245.138 50.272 245.139 50.272C245.14 50.272 245.14 50.272 245.141 50.272C245.141 50.272 245.142 50.272 245.143 50.272C245.143 50.272 245.144 50.272 245.145 50.272C245.145 50.272 245.146 50.272 245.146 50.272C245.147 50.272 245.148 50.272 245.148 50.272C245.149 50.272 245.15 50.272 245.15 50.272C245.151 50.272 245.151 50.272 245.152 50.272C245.153 50.272 245.153 50.272 245.154 50.272C245.155 50.272 245.155 50.272 245.156 50.272C245.156 50.272 245.157 50.272 245.158 50.272C245.158 50.272 245.159 50.272 245.16 50.272C245.16 50.272 245.161 50.272 245.161 50.272C245.162 50.272 245.163 50.272 245.163 50.272C245.164 50.272 245.165 50.272 245.165 50.272C245.166 50.272 245.166 50.272 245.167 50.272C245.168 50.272 245.168 50.272 245.169 50.272C245.17 50.272 245.17 50.272 245.171 50.272C245.171 50.272 245.172 50.272 245.173 50.272C245.173 50.272 245.174 50.272 245.175 50.272C245.175 50.272 245.176 50.272 245.176 50.272C245.177 50.272 245.178 50.272 245.178 50.272C245.179 50.272 245.18 50.272 245.18 50.272C245.181 50.272 245.181 50.272 245.182 50.272C245.183 50.272 245.183 50.272 245.184 50.272C245.185 50.272 245.185 50.272 245.186 50.272C245.186 50.272 245.187 50.272 245.188 50.272C245.188 50.272 245.189 50.272 245.19 50.272C245.19 50.272 245.191 50.272 245.191 50.272C245.192 50.272 245.193 50.272 245.193 50.272C245.194 50.272 245.195 50.272 245.195 50.272C245.196 50.272 245.196 50.272 245.197 50.272C245.198 50.272 245.198 50.272 245.199 50.272C245.2 50.272 245.2 50.272 245.201 50.272C245.201 50.272 245.202 50.272 245.203 50.272C245.203 50.272 245.204 50.272 245.205 50.272C245.205 50.272 245.206 50.272 245.206 50.272C245.207 50.272 245.208 50.272 245.208 50.272C245.209 50.272 245.21 50.272 245.21 50.272C245.211 50.272 245.211 50.272 245.212 50.272C245.213 50.272 245.213 50.272 245.214 50.272C245.215 50.272 245.215 50.272 245.216 50.272C245.216 50.272 245.217 50.272 245.218 50.272C245.218 50.272 245.219 50.272 245.22 50.272C245.22 50.272 245.221 50.272 245.221 50.272C245.222 50.272 245.223 50.272 245.223 50.272C245.224 50.272 245.225 50.272 245.225 50.272C245.226 50.272 245.226 50.272 245.227 50.272C245.228 50.272 245.228 50.272 245.229 50.272C245.23 50.272 245.23 50.272 245.231 50.272C245.231 50.272 245.232 50.272 245.233 50.272C245.233 50.272 245.234 50.272 245.235 50.272C245.235 50.272 245.236 50.272 245.236 50.272C245.237 50.272 245.238 50.272 245.238 50.272C245.239 50.272 245.24 50.272 245.24 50.272C245.241 50.272 245.241 50.272 245.242 50.272C245.243 50.272 245.243 50.272 245.244 50.272C245.245 50.272 245.245 50.272 245.246 50.272C245.246 50.272 245.247 50.272 245.248 50.272C245.248 50.272 245.249 50.272 245.25 50.272C245.25 50.272 245.251 50.272 245.251 50.272C245.252 50.272 245.253 50.272 245.253 50.272C245.254 50.272 245.255 50.272 245.255 50.272C245.256 50.272 245.256 50.272 245.257 50.272C245.258 50.272 245.258 50.272 245.259 50.272C245.26 50.272 245.26 50.272 245.261 50.272C245.261 50.272 245.262 50.272 245.263 50.272C245.263 50.272 245.264 50.272 245.265 50.272C245.265 50.272 245.266 50.272 245.266 50.272C245.267 50.272 245.268 50.272 245.268 50.272C245.269 50.272 245.27 50.272 245.27 50.272C245.271 50.272 245.271 50.272 245.272 50.272C245.273 50.272 245.273 50.272 245.274 50.272C245.275 50.272 245.275 50.272 245.276 50.272C245.276 50.272 245.277 50.272 245.278 50.272C245.278 50.272 245.279 50.272 245.28 50.272C245.28 50.272 245.281 50.272 245.281 50.272C245.282 50.272 245.283 50.272 245.283 50.272C245.284 50.272 245.285 50.272 245.285 50.272C245.286 50.272 245.286 50.272 245.287 50.272C245.288 50.272 245.288 50.272 245.289 50.272C245.29 50.272 245.29 50.272 245.291 50.272C245.291 50.272 245.292 50.272 245.293 50.272C245.293 50.272 245.294 50.272 245.295 50.272C245.295 50.272 245.296 50.272 245.296 50.272C245.297 50.272 245.298 50.272 245.298 50.272C245.299 50.272 245.3 50.272 245.3 50.272C245.301 50.272 245.301 50.272 245.302 50.272C245.303 50.272 245.303 50.272 245.304 50.272C245.305 50.272 245.305 50.272 245.306 50.272C245.306 50.272 245.307 50.272 245.308 50.272C245.308 50.272 245.309 50.272 245.31 50.272C245.31 50.272 245.311 50.272 245.311 50.272C245.312 50.272 245.313 50.272 245.313 50.272C245.314 50.272 245.315 50.272 245.315 50.272C245.316 50.272 245.316 50.272 245.317 50.272C245.318 50.272 245.318 50.272 245.319 50.272C245.32 50.272 245.32 50.272 245.321 50.272C245.321 50.272 245.322 50.272 245.323 50.272C245.323 50.272 245.324 50.272 245.325 50.272C245.325 50.272 245.326 50.272 245.326 50.272C245.327 50.272 245.328 50.272 245.328 50.272C245.329 50.272 245.33 50.272 245.33 50.272C245.331 50.272 245.331 50.272 245.332 50.272C245.333 50.272 245.333 50.272 245.334 50.272C245.335 50.272 245.335 50.272 245.336 50.272C245.336 50.272 245.337 50.272 245.338 50.272C245.338 50.272 245.339 50.272 245.34 50.272C245.34 50.272 245.341 50.272 245.341 50.272C245.342 50.272 245.343 50.272 245.343 50.272C245.344 50.272 245.345 50.272 245.345 50.272C245.346 50.272 245.346 50.272 245.347 50.272C245.348 50.272 245.348 50.272 245.349 50.272C245.35 50.272 245.35 50.272 245.351 50.272C245.351 50.272 245.352 50.272 245.353 50.272C245.353 50.272 245.354 50.272 245.355 50.272C245.355 50.272 245.356 50.272 245.356 50.272C245.357 50.272 245.358 50.272 245.358 50.272C245.359 50.272 245.36 50.272 245.36 50.272C245.361 50.272 245.361 50.272 245.362 50.272C245.363 50.272 245.363 50.272 245.364 50.272C245.365 50.272 245.365 50.272 245.366 50.272C245.366 50.272 245.367 50.272 245.368 50.272C245.368 50.272 245.369 50.272 245.37 50.272C245.37 50.272 245.371 50.272 245.371 50.272C245.372 50.272 245.373 50.272 245.373 50.272C245.374 50.272 245.375 50.272 245.375 50.272C245.376 50.272 245.376 50.272 245.377 50.272C245.378 50.272 245.378 50.272 245.379 50.272C245.38 50.272 245.38 50.272 245.381 50.272C245.381 50.272 245.382 50.272 245.383 50.272C245.383 50.272 245.384 50.272 245.385 50.272C245.385 50.272 245.386 50.272 245.386 50.272C245.387 50.272 245.388 50.272 245.388 50.272C245.389 50.272 245.39 50.272 245.39 50.272C245.391 50.272 245.391 50.272 245.392 50.272C245.393 50.272 245.393 50.272 245.394 50.272C245.395 50.272 245.395 50.272 245.396 50.272C245.396 50.272 245.397 50.272 245.398 50.272C245.398 50.272 245.399 50.272 245.4 50.272C245.4 50.272 245.401 50.272 245.401 50.272C245.402 50.272 245.403 50.272 245.403 50.272C245.404 50.272 245.405 50.272 245.405 50.272C245.406 50.272 245.406 50.272 245.407 50.272C245.408 50.272 245.408 50.272 245.409 50.272C245.41 50.272 245.41 50.272 245.411 50.272C245.411 50.272 245.412 50.272 245.413 50.272C245.413 50.272 245.414 50.272 245.415 50.272C245.415 50.272 245.416 50.272 245.416 50.272C245.417 50.272 245.418 50.272 245.418 50.272C245.419 50.272 245.42 50.272 245.42 50.272C245.421 50.272 245.421 50.272 245.422 50.272C245.423 50.272 245.423 50.272 245.424 50.272C245.425 50.272 245.425 50.272 245.426 50.272C245.426 50.272 245.427 50.272 245.428 50.272C245.428 50.272 245.429 50.272 245.43 50.272C245.43 50.272 245.431 50.272 245.431 50.272C245.432 50.272 245.433 50.272 245.433 50.272C245.434 50.272 245.435 50.272 245.435 50.272C245.436 50.272 245.436 50.272 245.437 50.272C245.438 50.272 245.438 50.272 245.439 50.272C245.44 50.272 245.44 50.272 245.441 50.272C245.441 50.272 245.442 50.272 245.443 50.272C245.443 50.272 245.444 50.272 245.445 50.272C245.445 50.272 245.446 50.272 245.446 50.272C245.447 50.272 245.448 50.272 245.448 50.272C245.449 50.272 245.45 50.272 245.45 50.272C245.451 50.272 245.451 50.272 245.452 50.272C245.453 50.272 245.453 50.272 245.454 50.272C245.455 50.272 245.455 50.272 245.456 50.272C245.456 50.272 245.457 50.272 245.458 50.272C245.458 50.272 245.459 50.272 245.46 50.272C245.46 50.272 245.461 50.272 245.461 50.272C245.462 50.272 245.463 50.272 245.463 50.272C245.464 50.272 245.465 50.272 245.465 50.272C245.466 50.272 245.466 50.272 245.467 50.272C245.468 50.272 245.468 50.272 245.469 50.272C245.47 50.272 245.47 50.272 245.471 50.272C245.471 50.272 245.472 50.272 245.473 50.272C245.473 50.272 245.474 50.272 245.475 50.272C245.475 50.272 245.476 50.272 245.476 50.272C245.477 50.272 245.478 50.272 245.478 50.272C245.479 50.272 245.48 50.272 245.48 50.272C245.481 50.272 245.481 50.272 245.482 50.272C245.483 50.272 245.483 50.272 245.484 50.272C245.485 50.272 245.485 50.272 245.486 50.272C245.486 50.272 245.487 50.272 245.488 50.272C245.488 50.272 245.489 50.272 245.49 50.272C245.49 50.272 245.491 50.272 245.491 50.272C245.492 50.272 245.493 50.272 245.493 50.272C245.494 50.272 245.495 50.272 245.495 50.272C245.496 50.272 245.496 50.272 245.497 50.272C245.498 50.272 245.498 50.272 245.499 50.272C245.5 50.272 245.5 50.272 245.501 50.272C245.501 50.272 245.502 50.272 245.503 50.272C245.503 50.272 245.504 50.272 245.505 50.272C245.505 50.272 245.506 50.272 245.506 50.272C245.507 50.272 245.508 50.272 245.508 50.272C245.509 50.272 245.51 50.272 245.51 50.272C245.511 50.272 245.511 50.272 245.512 50.272C245.513 50.272 245.513 50.272 245.514 50.272C245.515 50.272 245.515 50.272 245.516 50.272C245.516 50.272 245.517 50.272 245.518 50.272C245.518 50.272 245.519 50.272 245.52 50.272C245.52 50.272 245.521 50.272 245.521 50.272C245.522 50.272 245.523 50.272 245.523 50.272C245.524 50.272 245.525 50.272 245.525 50.272C245.526 50.272 245.526 50.272 245.527 50.272C245.528 50.272 245.528 50.272 245.529 50.272C245.53 50.272 245.53 50.272 245.531 50.272C245.531 50.272 245.532 50.272 245.533 50.272C245.533 50.272 245.534 50.272 245.535 50.272C245.535 50.272 245.536 50.272 245.536 50.272C245.537 50.272 245.538 50.272 245.538 50.272C245.539 50.272 245.54 50.272 245.54 50.272C245.541 50.272 245.541 50.272 245.542 50.272C245.543 50.272 245.543 50.272 245.544 50.272C245.545 50.272 245.545 50.272 245.546 50.272C245.546 50.272 245.547 50.272 245.548 50.272C245.548 50.272 245.549 50.272 245.55 50.272C245.55 50.272 245.551 50.272 245.551 50.272C245.552 50.272 245.553 50.272 245.553 50.272C245.554 50.272 245.555 50.272 245.555 50.272C245.556 50.272 245.556 50.272 245.557 50.272C245.558 50.272 245.558 50.272 245.559 50.272C245.56 50.272 245.56 50.272 245.561 50.272C245.561 50.272 245.562 50.272 245.563 50.272C245.563 50.272 245.564 50.272 245.565 50.272C245.565 50.272 245.566 50.272 245.566 50.272C245.567 50.272 245.568 50.272 245.568 50.272C245.569 50.272 245.57 50.272 245.57 50.272C245.571 50.272 245.571 50.272 245.572 50.272C245.573 50.272 245.573 50.272 245.574 50.272C245.575 50.272 245.575 50.272 245.576 50.272C245.576 50.272 245.577 50.272 245.578 50.272C245.578 50.272 245.579 50.272 245.58 50.272C245.58 50.272 245.581 50.272 245.581 50.272C245.582 50.272 245.583 50.272 245.583 50.272C245.584 50.272 245.585 50.272 245.585 50.272C245.586 50.272 245.586 50.272 245.587 50.272C245.588 50.272 245.588 50.272 245.589 50.272C245.59 50.272 245.59 50.272 245.591 50.272C245.591 50.272 245.592 50.272 245.593 50.272C245.593 50.272 245.594 50.272 245.595 50.272C245.595 50.272 245.596 50.272 245.596 50.272C245.597 50.272 245.598 50.272 245.598 50.272C245.599 50.272 245.6 50.272 245.6 50.272C245.601 50.272 245.601 50.272 245.602 50.272C245.603 50.272 245.603 50.272 245.604 50.272C245.605 50.272 245.605 50.272 245.606 50.272C245.606 50.272 245.607 50.272 245.608 50.272C245.608 50.272 245.609 50.272 245.61 50.272C245.61 50.272 245.611 50.272 245.611 50.272C245.612 50.272 245.613 50.272 245.613 50.272C245.614 50.272 245.615 50.272 245.615 50.272C245.616 50.272 245.616 50.272 245.617 50.272C245.618 50.272 245.618 50.272 245.619 50.272C245.62 50.272 245.62 50.272 245.621 50.272C245.621 50.272 245.622 50.272 245.623 50.272C245.623 50.272 245.624 50.272 245.625 50.272C245.625 50.272 245.626 50.272 245.626 50.272C245.627 50.272 245.628 50.272 245.628 50.272C245.629 50.272 245.63 50.272 245.63 50.272C245.631 50.272 245.631 50.272 245.632 50.272C245.633 50.272 245.633 50.272 245.634 50.272C245.635 50.272 245.635 50.272 245.636 50.272C245.636 50.272 245.637 50.272 245.638 50.272C245.638 50.272 245.639 50.272 245.64 50.272C245.64 50.272 245.641 50.272 245.641 50.272C245.642 50.272 245.643 50.272 245.643 50.272C245.644 50.272 245.645 50.272 245.645 50.272C245.646 50.272 245.646 50.272 245.647 50.272C245.648 50.272 245.648 50.272 245.649 50.272C245.65 50.272 245.65 50.272 245.651 50.272C245.651 50.272 245.652 50.272 245.653 50.272C245.653 50.272 245.654 50.272 245.655 50.272C245.655 50.272 245.656 50.272 245.656 50.272C245.657 50.272 245.658 50.272 245.658 50.272C245.659 50.272 245.66 50.272 245.66 50.272C245.661 50.272 245.661 50.272 245.662 50.272C245.663 50.272 245.663 50.272 245.664 50.272C245.665 50.272 245.665 50.272 245.666 50.272C245.666 50.272 245.667 50.272 245.668 50.272C245.668 50.272 245.669 50.272 245.67 50.272C245.67 50.272 245.671 50.272 245.671 50.272C245.672 50.272 245.673 50.272 245.673 50.272C245.674 50.272 245.675 50.272 245.675 50.272C245.676 50.272 245.676 50.272 245.677 50.272C245.678 50.272 245.678 50.272 245.679 50.272C245.68 50.272 245.68 50.272 245.681 50.272C245.681 50.272 245.682 50.272 245.683 50.272C245.683 50.272 245.684 50.272 245.685 50.272C245.685 50.272 245.686 50.272 245.686 50.272C245.687 50.272 245.688 50.272 245.688 50.272C245.689 50.272 245.69 50.272 245.69 50.272C245.691 50.272 245.691 50.272 245.692 50.272C245.693 50.272 245.693 50.272 245.694 50.272C245.695 50.272 245.695 50.272 245.696 50.272C245.696 50.272 245.697 50.272 245.698 50.272C245.698 50.272 245.699 50.272 245.7 50.272C245.7 50.272 245.701 50.272 245.701 50.272C245.702 50.272 245.703 50.272 245.703 50.272C245.704 50.272 245.705 50.272 245.705 50.272C245.706 50.272 245.706 50.272 245.707 50.272C245.708 50.272 245.708 50.272 245.709 50.272C245.71 50.272 245.71 50.272 245.711 50.272C245.711 50.272 245.712 50.272 245.713 50.272C245.713 50.272 245.714 50.272 245.715 50.272C245.715 50.272 245.716 50.272 245.716 50.272C245.717 50.272 245.718 50.272 245.718 50.272C245.719 50.272 245.72 50.272 245.72 50.272C245.721 50.272 245.721 50.272 245.722 50.272C245.723 50.272 245.723 50.272 245.724 50.272C245.725 50.272 245.725 50.272 245.726 50.272C245.726 50.272 245.727 50.272 245.728 50.272C245.728 50.272 245.729 50.272 245.73 50.272C245.73 50.272 245.731 50.272 245.731 50.272C245.732 50.272 245.733 50.272 245.733 50.272C245.734 50.272 245.735 50.272 245.735 50.272C245.736 50.272 245.736 50.272 245.737 50.272C245.738 50.272 245.738 50.272 245.739 50.272C245.74 50.272 245.74 50.272 245.741 50.272C245.741 50.272 245.742 50.272 245.743 50.272C245.743 50.272 245.744 50.272 245.745 50.272C245.745 50.272 245.746 50.272 245.746 50.272C245.747 50.272 245.748 50.272 245.748 50.272C245.749 50.272 245.75 50.272 245.75 50.272C245.751 50.272 245.751 50.272 245.752 50.272C245.753 50.272 245.753 50.272 245.754 50.272C245.755 50.272 245.755 50.272 245.756 50.272C245.756 50.272 245.757 50.272 245.758 50.272C245.758 50.272 245.759 50.272 245.76 50.272C245.76 50.272 245.761 50.272 245.761 50.272C245.762 50.272 245.763 50.272 245.763 50.272C245.764 50.272 245.765 50.272 245.765 50.272C245.766 50.272 245.766 50.272 245.767 50.272C245.768 50.272 245.768 50.272 245.769 50.272C245.77 50.272 245.77 50.272 245.771 50.272C245.771 50.272 245.772 50.272 245.773 50.272C245.773 50.272 245.774 50.272 245.775 50.272C245.775 50.272 245.776 50.272 245.776 50.272C245.777 50.272 245.778 50.272 245.778 50.272C245.779 50.272 245.78 50.272 245.78 50.272C245.781 50.272 245.781 50.272 245.782 50.272C245.783 50.272 245.783 50.272 245.784 50.272C245.785 50.272 245.785 50.272 245.786 50.272C245.786 50.272 245.787 50.272 245.788 50.272C245.788 50.272 245.789 50.272 245.79 50.272C245.79 50.272 245.791 50.272 245.791 50.272C245.792 50.272 245.793 50.272 245.793 50.272C245.794 50.272 245.795 50.272 245.795 50.272C245.796 50.272 245.796 50.272 245.797 50.272C245.798 50.272 245.798 50.272 245.799 50.272C245.8 50.272 245.8 50.272 245.801 50.272C245.801 50.272 245.802 50.272 245.803 50.272C245.803 50.272 245.804 50.272 245.805 50.272C245.805 50.272 245.806 50.272 245.806 50.272C245.807 50.272 245.808 50.272 245.808 50.272C245.809 50.272 245.81 50.272 245.81 50.272C245.811 50.272 245.811 50.272 245.812 50.272C245.813 50.272 245.813 50.272 245.814 50.272C245.815 50.272 245.815 50.272 245.816 50.272C245.816 50.272 245.817 50.272 245.818 50.272C245.818 50.272 245.819 50.272 245.82 50.272C245.82 50.272 245.821 50.272 245.821 50.272C245.822 50.272 245.823 50.272 245.823 50.272C245.824 50.272 245.825 50.272 245.825 50.272C245.826 50.272 245.826 50.272 245.827 50.272C245.828 50.272 245.828 50.272 245.829 50.272C245.83 50.272 245.83 50.272 245.831 50.272C245.831 50.272 245.832 50.272 245.833 50.272C245.833 50.272 245.834 50.272 245.835 50.272C245.835 50.272 245.836 50.272 245.836 50.272C245.837 50.272 245.838 50.272 245.838 50.272C245.839 50.272 245.84 50.272 245.84 50.272C245.841 50.272 245.841 50.272 245.842 50.272C245.843 50.272 245.843 50.272 245.844 50.272C245.845 50.272 245.845 50.272 245.846 50.272C245.846 50.272 245.847 50.272 245.848 50.272C245.848 50.272 245.849 50.272 245.85 50.272C245.85 50.272 245.851 50.272 245.851 50.272C245.852 50.272 245.853 50.272 245.853 50.272C245.854 50.272 245.855 50.272 245.855 50.272C245.856 50.272 245.856 50.272 245.857 50.272C245.858 50.272 245.858 50.272 245.859 50.272C245.86 50.272 245.86 50.272 245.861 50.272C245.861 50.272 245.862 50.272 245.863 50.272C245.863 50.272 245.864 50.272 245.865 50.272C245.865 50.272 245.866 50.272 245.866 50.272C245.867 50.272 245.868 50.272 245.868 50.272C245.869 50.272 245.87 50.272 245.87 50.272C245.871 50.272 245.871 50.272 245.872 50.272C245.873 50.272 245.873 50.272 245.874 50.272V48.272C245.873 48.272 245.873 48.272 245.872 48.272C245.871 48.272 245.871 48.272 245.87 48.272C245.87 48.272 245.869 48.272 245.868 48.272C245.868 48.272 245.867 48.272 245.866 48.272C245.866 48.272 245.865 48.272 245.865 48.272C245.864 48.272 245.863 48.272 245.863 48.272C245.862 48.272 245.861 48.272 245.861 48.272C245.86 48.272 245.86 48.272 245.859 48.272C245.858 48.272 245.858 48.272 245.857 48.272C245.856 48.272 245.856 48.272 245.855 48.272C245.855 48.272 245.854 48.272 245.853 48.272C245.853 48.272 245.852 48.272 245.851 48.272C245.851 48.272 245.85 48.272 245.85 48.272C245.849 48.272 245.848 48.272 245.848 48.272C245.847 48.272 245.846 48.272 245.846 48.272C245.845 48.272 245.845 48.272 245.844 48.272C245.843 48.272 245.843 48.272 245.842 48.272C245.841 48.272 245.841 48.272 245.84 48.272C245.84 48.272 245.839 48.272 245.838 48.272C245.838 48.272 245.837 48.272 245.836 48.272C245.836 48.272 245.835 48.272 245.835 48.272C245.834 48.272 245.833 48.272 245.833 48.272C245.832 48.272 245.831 48.272 245.831 48.272C245.83 48.272 245.83 48.272 245.829 48.272C245.828 48.272 245.828 48.272 245.827 48.272C245.826 48.272 245.826 48.272 245.825 48.272C245.825 48.272 245.824 48.272 245.823 48.272C245.823 48.272 245.822 48.272 245.821 48.272C245.821 48.272 245.82 48.272 245.82 48.272C245.819 48.272 245.818 48.272 245.818 48.272C245.817 48.272 245.816 48.272 245.816 48.272C245.815 48.272 245.815 48.272 245.814 48.272C245.813 48.272 245.813 48.272 245.812 48.272C245.811 48.272 245.811 48.272 245.81 48.272C245.81 48.272 245.809 48.272 245.808 48.272C245.808 48.272 245.807 48.272 245.806 48.272C245.806 48.272 245.805 48.272 245.805 48.272C245.804 48.272 245.803 48.272 245.803 48.272C245.802 48.272 245.801 48.272 245.801 48.272C245.8 48.272 245.8 48.272 245.799 48.272C245.798 48.272 245.798 48.272 245.797 48.272C245.796 48.272 245.796 48.272 245.795 48.272C245.795 48.272 245.794 48.272 245.793 48.272C245.793 48.272 245.792 48.272 245.791 48.272C245.791 48.272 245.79 48.272 245.79 48.272C245.789 48.272 245.788 48.272 245.788 48.272C245.787 48.272 245.786 48.272 245.786 48.272C245.785 48.272 245.785 48.272 245.784 48.272C245.783 48.272 245.783 48.272 245.782 48.272C245.781 48.272 245.781 48.272 245.78 48.272C245.78 48.272 245.779 48.272 245.778 48.272C245.778 48.272 245.777 48.272 245.776 48.272C245.776 48.272 245.775 48.272 245.775 48.272C245.774 48.272 245.773 48.272 245.773 48.272C245.772 48.272 245.771 48.272 245.771 48.272C245.77 48.272 245.77 48.272 245.769 48.272C245.768 48.272 245.768 48.272 245.767 48.272C245.766 48.272 245.766 48.272 245.765 48.272C245.765 48.272 245.764 48.272 245.763 48.272C245.763 48.272 245.762 48.272 245.761 48.272C245.761 48.272 245.76 48.272 245.76 48.272C245.759 48.272 245.758 48.272 245.758 48.272C245.757 48.272 245.756 48.272 245.756 48.272C245.755 48.272 245.755 48.272 245.754 48.272C245.753 48.272 245.753 48.272 245.752 48.272C245.751 48.272 245.751 48.272 245.75 48.272C245.75 48.272 245.749 48.272 245.748 48.272C245.748 48.272 245.747 48.272 245.746 48.272C245.746 48.272 245.745 48.272 245.745 48.272C245.744 48.272 245.743 48.272 245.743 48.272C245.742 48.272 245.741 48.272 245.741 48.272C245.74 48.272 245.74 48.272 245.739 48.272C245.738 48.272 245.738 48.272 245.737 48.272C245.736 48.272 245.736 48.272 245.735 48.272C245.735 48.272 245.734 48.272 245.733 48.272C245.733 48.272 245.732 48.272 245.731 48.272C245.731 48.272 245.73 48.272 245.73 48.272C245.729 48.272 245.728 48.272 245.728 48.272C245.727 48.272 245.726 48.272 245.726 48.272C245.725 48.272 245.725 48.272 245.724 48.272C245.723 48.272 245.723 48.272 245.722 48.272C245.721 48.272 245.721 48.272 245.72 48.272C245.72 48.272 245.719 48.272 245.718 48.272C245.718 48.272 245.717 48.272 245.716 48.272C245.716 48.272 245.715 48.272 245.715 48.272C245.714 48.272 245.713 48.272 245.713 48.272C245.712 48.272 245.711 48.272 245.711 48.272C245.71 48.272 245.71 48.272 245.709 48.272C245.708 48.272 245.708 48.272 245.707 48.272C245.706 48.272 245.706 48.272 245.705 48.272C245.705 48.272 245.704 48.272 245.703 48.272C245.703 48.272 245.702 48.272 245.701 48.272C245.701 48.272 245.7 48.272 245.7 48.272C245.699 48.272 245.698 48.272 245.698 48.272C245.697 48.272 245.696 48.272 245.696 48.272C245.695 48.272 245.695 48.272 245.694 48.272C245.693 48.272 245.693 48.272 245.692 48.272C245.691 48.272 245.691 48.272 245.69 48.272C245.69 48.272 245.689 48.272 245.688 48.272C245.688 48.272 245.687 48.272 245.686 48.272C245.686 48.272 245.685 48.272 245.685 48.272C245.684 48.272 245.683 48.272 245.683 48.272C245.682 48.272 245.681 48.272 245.681 48.272C245.68 48.272 245.68 48.272 245.679 48.272C245.678 48.272 245.678 48.272 245.677 48.272C245.676 48.272 245.676 48.272 245.675 48.272C245.675 48.272 245.674 48.272 245.673 48.272C245.673 48.272 245.672 48.272 245.671 48.272C245.671 48.272 245.67 48.272 245.67 48.272C245.669 48.272 245.668 48.272 245.668 48.272C245.667 48.272 245.666 48.272 245.666 48.272C245.665 48.272 245.665 48.272 245.664 48.272C245.663 48.272 245.663 48.272 245.662 48.272C245.661 48.272 245.661 48.272 245.66 48.272C245.66 48.272 245.659 48.272 245.658 48.272C245.658 48.272 245.657 48.272 245.656 48.272C245.656 48.272 245.655 48.272 245.655 48.272C245.654 48.272 245.653 48.272 245.653 48.272C245.652 48.272 245.651 48.272 245.651 48.272C245.65 48.272 245.65 48.272 245.649 48.272C245.648 48.272 245.648 48.272 245.647 48.272C245.646 48.272 245.646 48.272 245.645 48.272C245.645 48.272 245.644 48.272 245.643 48.272C245.643 48.272 245.642 48.272 245.641 48.272C245.641 48.272 245.64 48.272 245.64 48.272C245.639 48.272 245.638 48.272 245.638 48.272C245.637 48.272 245.636 48.272 245.636 48.272C245.635 48.272 245.635 48.272 245.634 48.272C245.633 48.272 245.633 48.272 245.632 48.272C245.631 48.272 245.631 48.272 245.63 48.272C245.63 48.272 245.629 48.272 245.628 48.272C245.628 48.272 245.627 48.272 245.626 48.272C245.626 48.272 245.625 48.272 245.625 48.272C245.624 48.272 245.623 48.272 245.623 48.272C245.622 48.272 245.621 48.272 245.621 48.272C245.62 48.272 245.62 48.272 245.619 48.272C245.618 48.272 245.618 48.272 245.617 48.272C245.616 48.272 245.616 48.272 245.615 48.272C245.615 48.272 245.614 48.272 245.613 48.272C245.613 48.272 245.612 48.272 245.611 48.272C245.611 48.272 245.61 48.272 245.61 48.272C245.609 48.272 245.608 48.272 245.608 48.272C245.607 48.272 245.606 48.272 245.606 48.272C245.605 48.272 245.605 48.272 245.604 48.272C245.603 48.272 245.603 48.272 245.602 48.272C245.601 48.272 245.601 48.272 245.6 48.272C245.6 48.272 245.599 48.272 245.598 48.272C245.598 48.272 245.597 48.272 245.596 48.272C245.596 48.272 245.595 48.272 245.595 48.272C245.594 48.272 245.593 48.272 245.593 48.272C245.592 48.272 245.591 48.272 245.591 48.272C245.59 48.272 245.59 48.272 245.589 48.272C245.588 48.272 245.588 48.272 245.587 48.272C245.586 48.272 245.586 48.272 245.585 48.272C245.585 48.272 245.584 48.272 245.583 48.272C245.583 48.272 245.582 48.272 245.581 48.272C245.581 48.272 245.58 48.272 245.58 48.272C245.579 48.272 245.578 48.272 245.578 48.272C245.577 48.272 245.576 48.272 245.576 48.272C245.575 48.272 245.575 48.272 245.574 48.272C245.573 48.272 245.573 48.272 245.572 48.272C245.571 48.272 245.571 48.272 245.57 48.272C245.57 48.272 245.569 48.272 245.568 48.272C245.568 48.272 245.567 48.272 245.566 48.272C245.566 48.272 245.565 48.272 245.565 48.272C245.564 48.272 245.563 48.272 245.563 48.272C245.562 48.272 245.561 48.272 245.561 48.272C245.56 48.272 245.56 48.272 245.559 48.272C245.558 48.272 245.558 48.272 245.557 48.272C245.556 48.272 245.556 48.272 245.555 48.272C245.555 48.272 245.554 48.272 245.553 48.272C245.553 48.272 245.552 48.272 245.551 48.272C245.551 48.272 245.55 48.272 245.55 48.272C245.549 48.272 245.548 48.272 245.548 48.272C245.547 48.272 245.546 48.272 245.546 48.272C245.545 48.272 245.545 48.272 245.544 48.272C245.543 48.272 245.543 48.272 245.542 48.272C245.541 48.272 245.541 48.272 245.54 48.272C245.54 48.272 245.539 48.272 245.538 48.272C245.538 48.272 245.537 48.272 245.536 48.272C245.536 48.272 245.535 48.272 245.535 48.272C245.534 48.272 245.533 48.272 245.533 48.272C245.532 48.272 245.531 48.272 245.531 48.272C245.53 48.272 245.53 48.272 245.529 48.272C245.528 48.272 245.528 48.272 245.527 48.272C245.526 48.272 245.526 48.272 245.525 48.272C245.525 48.272 245.524 48.272 245.523 48.272C245.523 48.272 245.522 48.272 245.521 48.272C245.521 48.272 245.52 48.272 245.52 48.272C245.519 48.272 245.518 48.272 245.518 48.272C245.517 48.272 245.516 48.272 245.516 48.272C245.515 48.272 245.515 48.272 245.514 48.272C245.513 48.272 245.513 48.272 245.512 48.272C245.511 48.272 245.511 48.272 245.51 48.272C245.51 48.272 245.509 48.272 245.508 48.272C245.508 48.272 245.507 48.272 245.506 48.272C245.506 48.272 245.505 48.272 245.505 48.272C245.504 48.272 245.503 48.272 245.503 48.272C245.502 48.272 245.501 48.272 245.501 48.272C245.5 48.272 245.5 48.272 245.499 48.272C245.498 48.272 245.498 48.272 245.497 48.272C245.496 48.272 245.496 48.272 245.495 48.272C245.495 48.272 245.494 48.272 245.493 48.272C245.493 48.272 245.492 48.272 245.491 48.272C245.491 48.272 245.49 48.272 245.49 48.272C245.489 48.272 245.488 48.272 245.488 48.272C245.487 48.272 245.486 48.272 245.486 48.272C245.485 48.272 245.485 48.272 245.484 48.272C245.483 48.272 245.483 48.272 245.482 48.272C245.481 48.272 245.481 48.272 245.48 48.272C245.48 48.272 245.479 48.272 245.478 48.272C245.478 48.272 245.477 48.272 245.476 48.272C245.476 48.272 245.475 48.272 245.475 48.272C245.474 48.272 245.473 48.272 245.473 48.272C245.472 48.272 245.471 48.272 245.471 48.272C245.47 48.272 245.47 48.272 245.469 48.272C245.468 48.272 245.468 48.272 245.467 48.272C245.466 48.272 245.466 48.272 245.465 48.272C245.465 48.272 245.464 48.272 245.463 48.272C245.463 48.272 245.462 48.272 245.461 48.272C245.461 48.272 245.46 48.272 245.46 48.272C245.459 48.272 245.458 48.272 245.458 48.272C245.457 48.272 245.456 48.272 245.456 48.272C245.455 48.272 245.455 48.272 245.454 48.272C245.453 48.272 245.453 48.272 245.452 48.272C245.451 48.272 245.451 48.272 245.45 48.272C245.45 48.272 245.449 48.272 245.448 48.272C245.448 48.272 245.447 48.272 245.446 48.272C245.446 48.272 245.445 48.272 245.445 48.272C245.444 48.272 245.443 48.272 245.443 48.272C245.442 48.272 245.441 48.272 245.441 48.272C245.44 48.272 245.44 48.272 245.439 48.272C245.438 48.272 245.438 48.272 245.437 48.272C245.436 48.272 245.436 48.272 245.435 48.272C245.435 48.272 245.434 48.272 245.433 48.272C245.433 48.272 245.432 48.272 245.431 48.272C245.431 48.272 245.43 48.272 245.43 48.272C245.429 48.272 245.428 48.272 245.428 48.272C245.427 48.272 245.426 48.272 245.426 48.272C245.425 48.272 245.425 48.272 245.424 48.272C245.423 48.272 245.423 48.272 245.422 48.272C245.421 48.272 245.421 48.272 245.42 48.272C245.42 48.272 245.419 48.272 245.418 48.272C245.418 48.272 245.417 48.272 245.416 48.272C245.416 48.272 245.415 48.272 245.415 48.272C245.414 48.272 245.413 48.272 245.413 48.272C245.412 48.272 245.411 48.272 245.411 48.272C245.41 48.272 245.41 48.272 245.409 48.272C245.408 48.272 245.408 48.272 245.407 48.272C245.406 48.272 245.406 48.272 245.405 48.272C245.405 48.272 245.404 48.272 245.403 48.272C245.403 48.272 245.402 48.272 245.401 48.272C245.401 48.272 245.4 48.272 245.4 48.272C245.399 48.272 245.398 48.272 245.398 48.272C245.397 48.272 245.396 48.272 245.396 48.272C245.395 48.272 245.395 48.272 245.394 48.272C245.393 48.272 245.393 48.272 245.392 48.272C245.391 48.272 245.391 48.272 245.39 48.272C245.39 48.272 245.389 48.272 245.388 48.272C245.388 48.272 245.387 48.272 245.386 48.272C245.386 48.272 245.385 48.272 245.385 48.272C245.384 48.272 245.383 48.272 245.383 48.272C245.382 48.272 245.381 48.272 245.381 48.272C245.38 48.272 245.38 48.272 245.379 48.272C245.378 48.272 245.378 48.272 245.377 48.272C245.376 48.272 245.376 48.272 245.375 48.272C245.375 48.272 245.374 48.272 245.373 48.272C245.373 48.272 245.372 48.272 245.371 48.272C245.371 48.272 245.37 48.272 245.37 48.272C245.369 48.272 245.368 48.272 245.368 48.272C245.367 48.272 245.366 48.272 245.366 48.272C245.365 48.272 245.365 48.272 245.364 48.272C245.363 48.272 245.363 48.272 245.362 48.272C245.361 48.272 245.361 48.272 245.36 48.272C245.36 48.272 245.359 48.272 245.358 48.272C245.358 48.272 245.357 48.272 245.356 48.272C245.356 48.272 245.355 48.272 245.355 48.272C245.354 48.272 245.353 48.272 245.353 48.272C245.352 48.272 245.351 48.272 245.351 48.272C245.35 48.272 245.35 48.272 245.349 48.272C245.348 48.272 245.348 48.272 245.347 48.272C245.346 48.272 245.346 48.272 245.345 48.272C245.345 48.272 245.344 48.272 245.343 48.272C245.343 48.272 245.342 48.272 245.341 48.272C245.341 48.272 245.34 48.272 245.34 48.272C245.339 48.272 245.338 48.272 245.338 48.272C245.337 48.272 245.336 48.272 245.336 48.272C245.335 48.272 245.335 48.272 245.334 48.272C245.333 48.272 245.333 48.272 245.332 48.272C245.331 48.272 245.331 48.272 245.33 48.272C245.33 48.272 245.329 48.272 245.328 48.272C245.328 48.272 245.327 48.272 245.326 48.272C245.326 48.272 245.325 48.272 245.325 48.272C245.324 48.272 245.323 48.272 245.323 48.272C245.322 48.272 245.321 48.272 245.321 48.272C245.32 48.272 245.32 48.272 245.319 48.272C245.318 48.272 245.318 48.272 245.317 48.272C245.316 48.272 245.316 48.272 245.315 48.272C245.315 48.272 245.314 48.272 245.313 48.272C245.313 48.272 245.312 48.272 245.311 48.272C245.311 48.272 245.31 48.272 245.31 48.272C245.309 48.272 245.308 48.272 245.308 48.272C245.307 48.272 245.306 48.272 245.306 48.272C245.305 48.272 245.305 48.272 245.304 48.272C245.303 48.272 245.303 48.272 245.302 48.272C245.301 48.272 245.301 48.272 245.3 48.272C245.3 48.272 245.299 48.272 245.298 48.272C245.298 48.272 245.297 48.272 245.296 48.272C245.296 48.272 245.295 48.272 245.295 48.272C245.294 48.272 245.293 48.272 245.293 48.272C245.292 48.272 245.291 48.272 245.291 48.272C245.29 48.272 245.29 48.272 245.289 48.272C245.288 48.272 245.288 48.272 245.287 48.272C245.286 48.272 245.286 48.272 245.285 48.272C245.285 48.272 245.284 48.272 245.283 48.272C245.283 48.272 245.282 48.272 245.281 48.272C245.281 48.272 245.28 48.272 245.28 48.272C245.279 48.272 245.278 48.272 245.278 48.272C245.277 48.272 245.276 48.272 245.276 48.272C245.275 48.272 245.275 48.272 245.274 48.272C245.273 48.272 245.273 48.272 245.272 48.272C245.271 48.272 245.271 48.272 245.27 48.272C245.27 48.272 245.269 48.272 245.268 48.272C245.268 48.272 245.267 48.272 245.266 48.272C245.266 48.272 245.265 48.272 245.265 48.272C245.264 48.272 245.263 48.272 245.263 48.272C245.262 48.272 245.261 48.272 245.261 48.272C245.26 48.272 245.26 48.272 245.259 48.272C245.258 48.272 245.258 48.272 245.257 48.272C245.256 48.272 245.256 48.272 245.255 48.272C245.255 48.272 245.254 48.272 245.253 48.272C245.253 48.272 245.252 48.272 245.251 48.272C245.251 48.272 245.25 48.272 245.25 48.272C245.249 48.272 245.248 48.272 245.248 48.272C245.247 48.272 245.246 48.272 245.246 48.272C245.245 48.272 245.245 48.272 245.244 48.272C245.243 48.272 245.243 48.272 245.242 48.272C245.241 48.272 245.241 48.272 245.24 48.272C245.24 48.272 245.239 48.272 245.238 48.272C245.238 48.272 245.237 48.272 245.236 48.272C245.236 48.272 245.235 48.272 245.235 48.272C245.234 48.272 245.233 48.272 245.233 48.272C245.232 48.272 245.231 48.272 245.231 48.272C245.23 48.272 245.23 48.272 245.229 48.272C245.228 48.272 245.228 48.272 245.227 48.272C245.226 48.272 245.226 48.272 245.225 48.272C245.225 48.272 245.224 48.272 245.223 48.272C245.223 48.272 245.222 48.272 245.221 48.272C245.221 48.272 245.22 48.272 245.22 48.272C245.219 48.272 245.218 48.272 245.218 48.272C245.217 48.272 245.216 48.272 245.216 48.272C245.215 48.272 245.215 48.272 245.214 48.272C245.213 48.272 245.213 48.272 245.212 48.272C245.211 48.272 245.211 48.272 245.21 48.272C245.21 48.272 245.209 48.272 245.208 48.272C245.208 48.272 245.207 48.272 245.206 48.272C245.206 48.272 245.205 48.272 245.205 48.272C245.204 48.272 245.203 48.272 245.203 48.272C245.202 48.272 245.201 48.272 245.201 48.272C245.2 48.272 245.2 48.272 245.199 48.272C245.198 48.272 245.198 48.272 245.197 48.272C245.196 48.272 245.196 48.272 245.195 48.272C245.195 48.272 245.194 48.272 245.193 48.272C245.193 48.272 245.192 48.272 245.191 48.272C245.191 48.272 245.19 48.272 245.19 48.272C245.189 48.272 245.188 48.272 245.188 48.272C245.187 48.272 245.186 48.272 245.186 48.272C245.185 48.272 245.185 48.272 245.184 48.272C245.183 48.272 245.183 48.272 245.182 48.272C245.181 48.272 245.181 48.272 245.18 48.272C245.18 48.272 245.179 48.272 245.178 48.272C245.178 48.272 245.177 48.272 245.176 48.272C245.176 48.272 245.175 48.272 245.175 48.272C245.174 48.272 245.173 48.272 245.173 48.272C245.172 48.272 245.171 48.272 245.171 48.272C245.17 48.272 245.17 48.272 245.169 48.272C245.168 48.272 245.168 48.272 245.167 48.272C245.166 48.272 245.166 48.272 245.165 48.272C245.165 48.272 245.164 48.272 245.163 48.272C245.163 48.272 245.162 48.272 245.161 48.272C245.161 48.272 245.16 48.272 245.16 48.272C245.159 48.272 245.158 48.272 245.158 48.272C245.157 48.272 245.156 48.272 245.156 48.272C245.155 48.272 245.155 48.272 245.154 48.272C245.153 48.272 245.153 48.272 245.152 48.272C245.151 48.272 245.151 48.272 245.15 48.272C245.15 48.272 245.149 48.272 245.148 48.272C245.148 48.272 245.147 48.272 245.146 48.272C245.146 48.272 245.145 48.272 245.145 48.272C245.144 48.272 245.143 48.272 245.143 48.272C245.142 48.272 245.141 48.272 245.141 48.272C245.14 48.272 245.14 48.272 245.139 48.272C245.138 48.272 245.138 48.272 245.137 48.272C245.136 48.272 245.136 48.272 245.135 48.272C245.135 48.272 245.134 48.272 245.133 48.272C245.133 48.272 245.132 48.272 245.131 48.272C245.131 48.272 245.13 48.272 245.13 48.272C245.129 48.272 245.128 48.272 245.128 48.272C245.127 48.272 245.126 48.272 245.126 48.272C245.125 48.272 245.125 48.272 245.124 48.272C245.123 48.272 245.123 48.272 245.122 48.272C245.121 48.272 245.121 48.272 245.12 48.272C245.12 48.272 245.119 48.272 245.118 48.272C245.118 48.272 245.117 48.272 245.116 48.272C245.116 48.272 245.115 48.272 245.115 48.272C245.114 48.272 245.113 48.272 245.113 48.272C245.112 48.272 245.111 48.272 245.111 48.272C245.11 48.272 245.11 48.272 245.109 48.272C245.108 48.272 245.108 48.272 245.107 48.272C245.106 48.272 245.106 48.272 245.105 48.272C245.105 48.272 245.104 48.272 245.103 48.272C245.103 48.272 245.102 48.272 245.101 48.272C245.101 48.272 245.1 48.272 245.1 48.272C245.099 48.272 245.098 48.272 245.098 48.272C245.097 48.272 245.096 48.272 245.096 48.272C245.095 48.272 245.095 48.272 245.094 48.272C245.093 48.272 245.093 48.272 245.092 48.272C245.091 48.272 245.091 48.272 245.09 48.272C245.09 48.272 245.089 48.272 245.088 48.272C245.088 48.272 245.087 48.272 245.086 48.272C245.086 48.272 245.085 48.272 245.085 48.272C245.084 48.272 245.083 48.272 245.083 48.272C245.082 48.272 245.081 48.272 245.081 48.272C245.08 48.272 245.08 48.272 245.079 48.272C245.078 48.272 245.078 48.272 245.077 48.272C245.076 48.272 245.076 48.272 245.075 48.272C245.075 48.272 245.074 48.272 245.073 48.272C245.073 48.272 245.072 48.272 245.071 48.272C245.071 48.272 245.07 48.272 245.07 48.272C245.069 48.272 245.068 48.272 245.068 48.272C245.067 48.272 245.066 48.272 245.066 48.272C245.065 48.272 245.065 48.272 245.064 48.272C245.063 48.272 245.063 48.272 245.062 48.272C245.061 48.272 245.061 48.272 245.06 48.272C245.06 48.272 245.059 48.272 245.058 48.272C245.058 48.272 245.057 48.272 245.056 48.272C245.056 48.272 245.055 48.272 245.055 48.272C245.054 48.272 245.053 48.272 245.053 48.272C245.052 48.272 245.051 48.272 245.051 48.272C245.05 48.272 245.05 48.272 245.049 48.272C245.048 48.272 245.048 48.272 245.047 48.272C245.046 48.272 245.046 48.272 245.045 48.272C245.045 48.272 245.044 48.272 245.043 48.272C245.043 48.272 245.042 48.272 245.041 48.272C245.041 48.272 245.04 48.272 245.04 48.272C245.039 48.272 245.038 48.272 245.038 48.272C245.037 48.272 245.036 48.272 245.036 48.272C245.035 48.272 245.035 48.272 245.034 48.272C245.033 48.272 245.033 48.272 245.032 48.272C245.031 48.272 245.031 48.272 245.03 48.272C245.03 48.272 245.029 48.272 245.028 48.272C245.028 48.272 245.027 48.272 245.026 48.272C245.026 48.272 245.025 48.272 245.025 48.272C245.024 48.272 245.023 48.272 245.023 48.272C245.022 48.272 245.021 48.272 245.021 48.272C245.02 48.272 245.02 48.272 245.019 48.272C245.018 48.272 245.018 48.272 245.017 48.272C245.016 48.272 245.016 48.272 245.015 48.272C245.015 48.272 245.014 48.272 245.013 48.272C245.013 48.272 245.012 48.272 245.011 48.272C245.011 48.272 245.01 48.272 245.01 48.272C245.009 48.272 245.008 48.272 245.008 48.272C245.007 48.272 245.006 48.272 245.006 48.272C245.005 48.272 245.005 48.272 245.004 48.272C245.003 48.272 245.003 48.272 245.002 48.272C245.001 48.272 245.001 48.272 245 48.272C245 48.272 244.999 48.272 244.998 48.272C244.998 48.272 244.997 48.272 244.996 48.272C244.996 48.272 244.995 48.272 244.995 48.272C244.994 48.272 244.993 48.272 244.993 48.272C244.992 48.272 244.991 48.272 244.991 48.272C244.99 48.272 244.99 48.272 244.989 48.272C244.988 48.272 244.988 48.272 244.987 48.272C244.986 48.272 244.986 48.272 244.985 48.272C244.985 48.272 244.984 48.272 244.983 48.272C244.983 48.272 244.982 48.272 244.981 48.272C244.981 48.272 244.98 48.272 244.98 48.272C244.979 48.272 244.978 48.272 244.978 48.272C244.977 48.272 244.976 48.272 244.976 48.272C244.975 48.272 244.975 48.272 244.974 48.272C244.973 48.272 244.973 48.272 244.972 48.272C244.971 48.272 244.971 48.272 244.97 48.272C244.97 48.272 244.969 48.272 244.968 48.272C244.968 48.272 244.967 48.272 244.966 48.272C244.966 48.272 244.965 48.272 244.965 48.272C244.964 48.272 244.963 48.272 244.963 48.272C244.962 48.272 244.961 48.272 244.961 48.272C244.96 48.272 244.96 48.272 244.959 48.272C244.958 48.272 244.958 48.272 244.957 48.272C244.956 48.272 244.956 48.272 244.955 48.272C244.955 48.272 244.954 48.272 244.953 48.272C244.953 48.272 244.952 48.272 244.951 48.272C244.951 48.272 244.95 48.272 244.95 48.272C244.949 48.272 244.948 48.272 244.948 48.272C244.947 48.272 244.946 48.272 244.946 48.272C244.945 48.272 244.945 48.272 244.944 48.272C244.943 48.272 244.943 48.272 244.942 48.272C244.941 48.272 244.941 48.272 244.94 48.272C244.94 48.272 244.939 48.272 244.938 48.272C244.938 48.272 244.937 48.272 244.936 48.272C244.936 48.272 244.935 48.272 244.935 48.272C244.934 48.272 244.933 48.272 244.933 48.272C244.932 48.272 244.931 48.272 244.931 48.272C244.93 48.272 244.93 48.272 244.929 48.272C244.928 48.272 244.928 48.272 244.927 48.272C244.926 48.272 244.926 48.272 244.925 48.272C244.925 48.272 244.924 48.272 244.923 48.272C244.923 48.272 244.922 48.272 244.921 48.272C244.921 48.272 244.92 48.272 244.92 48.272C244.919 48.272 244.918 48.272 244.918 48.272C244.917 48.272 244.916 48.272 244.916 48.272C244.915 48.272 244.915 48.272 244.914 48.272V50.272ZM245.874 50.272C246.161 50.272 246.466 50.2863 246.791 50.3159L246.972 48.3241C246.593 48.2896 246.227 48.272 245.874 48.272V50.272ZM247.877 49.4163C247.975 48.4012 248.026 47.488 248.026 46.68H246.026C246.026 47.408 245.98 48.2548 245.887 49.2237L247.877 49.4163ZM248.026 46.68C248.026 44.8198 247.761 43.2561 247.014 42.2456L245.406 43.4344C245.747 43.8959 246.026 44.8922 246.026 46.68H248.026ZM247.014 42.2456C246.193 41.1353 244.806 40.736 243.234 40.736V42.736C244.542 42.736 245.138 43.0727 245.406 43.4344L247.014 42.2456ZM243.234 40.736C242.232 40.736 241.166 40.8968 240.043 41.2032L240.569 43.1328C241.557 42.8632 242.444 42.736 243.234 42.736V40.736ZM240.07 41.1961C238.948 41.4683 237.969 41.8354 237.157 42.3151L238.175 44.0369C238.771 43.6846 239.552 43.3797 240.541 43.1398L240.07 41.1961ZM238.588 42.7879L237.436 40.0519L235.592 40.8281L236.744 43.5641L238.588 42.7879ZM247.029 51.061C246.676 51.0257 246.323 51.008 245.97 51.008V53.008C246.256 53.008 246.543 53.0223 246.83 53.051L247.029 51.061ZM246.069 51.013C245.716 50.9777 245.363 50.96 245.01 50.96V52.96C245.296 52.96 245.583 52.9743 245.87 53.003L246.069 51.013ZM245.01 50.96C244.186 50.96 243.377 51.0287 242.583 51.1668L242.925 53.1372C243.603 53.0193 244.298 52.96 245.01 52.96V50.96ZM242.583 51.1668C241.751 51.3114 240.986 51.5688 240.3 51.9498L241.272 53.6982C241.738 53.4392 242.285 53.2486 242.925 53.1372L242.583 51.1668ZM240.3 51.9498C239.583 52.3481 238.997 52.8927 238.554 53.5767L240.233 54.6633C240.495 54.2593 240.836 53.9399 241.272 53.6982L240.3 51.9498ZM238.532 53.613C238.097 54.3521 237.914 55.2289 237.914 56.184H239.914C239.914 55.4751 240.051 54.9759 240.256 54.627L238.532 53.613ZM237.914 56.184C237.914 57.6138 238.254 58.8697 239.069 59.8136L240.583 58.5064C240.182 58.0423 239.914 57.3142 239.914 56.184H237.914ZM239.086 59.8327C239.924 60.755 241.014 61.216 242.274 61.216V59.216C241.55 59.216 241.007 58.973 240.566 58.4873L239.086 59.8327ZM242.274 61.216C243.768 61.216 245.073 60.8599 246.05 60.0106L244.738 58.5014C244.242 58.9321 243.468 59.216 242.274 59.216V61.216ZM246.05 60.0106C246.888 59.2821 247.51 58.4458 247.866 57.4951L245.994 56.7929C245.774 57.3782 245.372 57.9499 244.738 58.5014L246.05 60.0106ZM247.93 57.144V52.056H245.93V57.144H247.93ZM255.973 39V38H254.973V39H255.973ZM258.421 39L259.392 38.7618L259.205 38H258.421V39ZM259.045 41.544L258.073 41.7822L258.26 42.544H259.045V41.544ZM259.189 41.544V42.544H259.816L260.089 41.9787L259.189 41.544ZM260.917 39.384L261.505 40.1928L261.511 40.1882L260.917 39.384ZM266.053 39L267.035 39.1883L267.203 38.31L266.349 38.0449L266.053 39ZM265.381 42.504L265.054 43.449L266.145 43.8269L266.363 42.6923L265.381 42.504ZM260.677 42.984L261.346 43.7273L261.356 43.7183L261.365 43.709L260.677 42.984ZM259.429 45.336L258.447 45.146L258.429 45.2401V45.336H259.429ZM259.429 63V64H260.429V63H259.429ZM255.973 63H254.973V64H255.973V63ZM255.973 40H258.421V38H255.973V40ZM257.449 39.2382L258.073 41.7822L260.016 41.3058L259.392 38.7618L257.449 39.2382ZM259.045 42.544H259.189V40.544H259.045V42.544ZM260.089 41.9787C260.479 41.172 260.957 40.5914 261.505 40.1927L260.328 38.5753C259.469 39.2006 258.795 40.06 258.288 41.1092L260.089 41.9787ZM261.511 40.1882C262.055 39.7863 262.72 39.568 263.557 39.568V37.568C262.345 37.568 261.251 37.8937 260.322 38.5798L261.511 40.1882ZM263.557 39.568C264.166 39.568 264.895 39.6879 265.756 39.9551L266.349 38.0449C265.354 37.7361 264.419 37.568 263.557 37.568V39.568ZM265.071 38.8117L264.399 42.3157L266.363 42.6923L267.035 39.1883L265.071 38.8117ZM265.708 41.559C264.807 41.2473 263.957 41.072 263.173 41.072V43.072C263.668 43.072 264.29 43.1847 265.054 43.449L265.708 41.559ZM263.173 41.072C261.936 41.072 260.843 41.4463 259.988 42.259L261.365 43.709C261.79 43.3057 262.361 43.072 263.173 43.072V41.072ZM260.008 42.2407C259.179 42.9864 258.673 43.9788 258.447 45.146L260.41 45.526C260.569 44.7092 260.894 44.1336 261.346 43.7273L260.008 42.2407ZM258.429 45.336V63H260.429V45.336H258.429ZM259.429 62H255.973V64H259.429V62ZM256.973 63V39H254.973V63H256.973ZM275.097 54.504L276.074 54.2924L276.066 54.2582L276.057 54.2246L275.097 54.504ZM276.105 59.16L275.127 59.3716L275.298 60.16H276.105V59.16ZM276.345 59.16V60.16H277.202L277.333 59.3128L276.345 59.16ZM277.065 54.504L276.091 54.275L276.082 54.3128L276.076 54.3512L277.065 54.504ZM280.713 39V38H279.92L279.739 38.771L280.713 39ZM284.217 39L285.183 39.2562L285.516 38H284.217V39ZM278.505 60.552L277.538 60.2958L277.537 60.301L278.505 60.552ZM277.161 65.4L276.202 65.1145L277.161 65.4ZM275.673 69.288L274.778 68.8408L274.77 68.8564L274.763 68.8722L275.673 69.288ZM273.897 71.88L273.226 71.1385L273.207 71.1552L273.189 71.1729L273.897 71.88ZM269.241 72.408L268.256 72.2342L268.118 73.0149L268.847 73.3271L269.241 72.408ZM269.817 69.144L270.153 68.2023L269.038 67.8039L268.832 68.9702L269.817 69.144ZM271.161 69.24L271.37 70.2178L271.37 70.2178L271.161 69.24ZM272.409 68.424L271.676 67.7435L271.662 67.7581L271.649 67.7732L272.409 68.424ZM273.513 66.408L272.586 66.0307L272.578 66.051L272.571 66.0717L273.513 66.408ZM274.425 63L275.408 63.1789L275.453 62.9312L275.376 62.6918L274.425 63ZM266.649 39V38H265.273L265.697 39.3082L266.649 39ZM270.585 39L271.545 38.7206L271.335 38H270.585V39ZM274.119 54.7156L275.127 59.3716L277.082 58.9484L276.074 54.2924L274.119 54.7156ZM276.105 60.16H276.345V58.16H276.105V60.16ZM277.333 59.3128L278.053 54.6568L276.076 54.3512L275.356 59.0072L277.333 59.3128ZM278.038 54.733L281.686 39.229L279.739 38.771L276.091 54.275L278.038 54.733ZM280.713 40H284.217V38H280.713V40ZM283.25 38.7438L277.538 60.2958L279.471 60.8082L285.183 39.2562L283.25 38.7438ZM277.537 60.301C277.091 62.019 276.646 63.6234 276.202 65.1145L278.119 65.6855C278.571 64.1686 279.022 62.541 279.472 60.803L277.537 60.301ZM276.202 65.1145C275.766 66.5779 275.29 67.8171 274.778 68.8408L276.567 69.7352C277.143 68.5829 277.659 67.2301 278.119 65.6855L276.202 65.1145ZM274.763 68.8722C274.288 69.9103 273.768 70.6482 273.226 71.1385L274.567 72.6215C275.369 71.8958 276.033 70.9057 276.582 69.7038L274.763 68.8722ZM273.189 71.1729C272.735 71.6275 272.22 71.84 271.593 71.84V73.84C272.757 73.84 273.778 73.4125 274.604 72.5871L273.189 71.1729ZM271.593 71.84C270.802 71.84 270.157 71.7129 269.634 71.4889L268.847 73.3271C269.668 73.6791 270.591 73.84 271.593 73.84V71.84ZM270.225 72.5818L270.801 69.3178L268.832 68.9702L268.256 72.2342L270.225 72.5818ZM269.48 70.0857C270.096 70.3058 270.733 70.3543 271.37 70.2178L270.951 68.2622C270.692 68.3177 270.433 68.3022 270.153 68.2023L269.48 70.0857ZM271.37 70.2178C272.087 70.0642 272.683 69.6409 273.168 69.0748L271.649 67.7732C271.366 68.1031 271.13 68.2238 270.951 68.2622L271.37 70.2178ZM273.141 69.1045C273.686 68.5174 274.111 67.7045 274.454 66.7443L272.571 66.0717C272.274 66.9035 271.963 67.4346 271.676 67.7435L273.141 69.1045ZM274.439 66.7853C274.827 65.833 275.146 64.6229 275.408 63.1789L273.441 62.8211C273.191 64.1931 272.902 65.255 272.586 66.0307L274.439 66.7853ZM275.376 62.6918L267.6 38.6918L265.697 39.3082L273.473 63.3082L275.376 62.6918ZM266.649 40H270.585V38H266.649V40ZM269.624 39.2794L274.136 54.7834L276.057 54.2246L271.545 38.7206L269.624 39.2794ZM297.925 33.24L297.075 32.7133L297.075 32.7133L297.925 33.24ZM311.413 30.072L310.904 30.9329L310.912 30.9373L310.919 30.9415L311.413 30.072ZM314.821 33.528L313.954 34.0261L313.958 34.033L313.962 34.0398L314.821 33.528ZM316.789 39L315.807 39.1905L315.807 39.1905L316.789 39ZM314.629 59.16L313.783 58.6267L313.779 58.6333L314.629 59.16ZM301.189 62.376L300.68 63.2369L300.688 63.2413L300.695 63.2455L301.189 62.376ZM297.733 58.872L296.874 59.3838L296.874 59.3838L297.733 58.872ZM295.765 53.4L294.781 53.5763L294.782 53.5834L294.783 53.5905L295.765 53.4ZM299.365 51.576L298.376 51.7253L298.378 51.7343L298.379 51.7434L299.365 51.576ZM300.661 56.04L299.749 56.4504L299.749 56.4504L300.661 56.04ZM302.917 59.112L302.279 59.8824L302.279 59.8824L302.917 59.112ZM311.749 56.808L310.87 56.3317L310.87 56.3317L311.749 56.808ZM313.189 40.872L312.2 41.0213L312.202 41.0303L312.203 41.0394L313.189 40.872ZM311.941 36.408L311.025 36.81L311.029 36.8184L311.941 36.408ZM309.685 33.288L310.323 32.5176L310.323 32.5176L309.685 33.288ZM300.853 35.592L299.974 35.1157L299.974 35.1157L300.853 35.592ZM296.189 46.2C296.189 40.5824 297.093 36.4808 298.775 33.7667L297.075 32.7133C295.109 35.8872 294.189 40.4256 294.189 46.2H296.189ZM298.775 33.7667C300.4 31.1445 302.845 29.824 306.277 29.824V27.824C302.221 27.824 299.098 29.4475 297.075 32.7133L298.775 33.7667ZM306.277 29.824C308.155 29.824 309.682 30.211 310.904 30.9329L311.922 29.2111C310.328 28.269 308.431 27.824 306.277 27.824V29.824ZM310.919 30.9415C312.161 31.6469 313.172 32.6656 313.954 34.0261L315.688 33.0299C314.742 31.3824 313.481 30.0971 311.907 29.2025L310.919 30.9415ZM313.962 34.0398C314.786 35.4235 315.408 37.1329 315.807 39.1905L317.771 38.8095C317.338 36.5791 316.648 34.6405 315.68 33.0162L313.962 34.0398ZM315.807 39.1905C316.209 41.26 316.413 43.5948 316.413 46.2H318.413C318.413 43.4932 318.201 41.028 317.771 38.8095L315.807 39.1905ZM316.413 46.2C316.413 51.8155 315.493 55.9142 313.783 58.6267L315.475 59.6933C317.477 56.5178 318.413 51.9765 318.413 46.2H316.413ZM313.779 58.6333C312.154 61.2555 309.709 62.576 306.277 62.576V64.576C310.333 64.576 313.456 62.9525 315.479 59.6867L313.779 58.6333ZM306.277 62.576C304.427 62.576 302.91 62.2037 301.683 61.5065L300.695 63.2455C302.284 64.1483 304.159 64.576 306.277 64.576V62.576ZM301.698 61.5151C300.444 60.7742 299.409 59.7308 298.592 58.3602L296.874 59.3838C297.849 61.0212 299.118 62.3138 300.68 63.2369L301.698 61.5151ZM298.592 58.3602C297.768 56.9765 297.146 55.2671 296.747 53.2095L294.783 53.5905C295.216 55.8209 295.906 57.7595 296.874 59.3838L298.592 58.3602ZM296.749 53.2237C296.378 51.1489 296.189 48.8092 296.189 46.2H294.189C294.189 48.9028 294.384 51.3631 294.781 53.5763L296.749 53.2237ZM297.981 46.2C297.981 48.133 298.112 49.9752 298.376 51.7253L300.354 51.4267C300.106 49.7848 299.981 48.043 299.981 46.2H297.981ZM298.379 51.7434C298.678 53.5051 299.131 55.0778 299.749 56.4504L301.573 55.6296C301.039 54.4422 300.628 53.0389 300.351 51.4086L298.379 51.7434ZM299.749 56.4504C300.377 57.8468 301.216 59.002 302.279 59.8824L303.555 58.3416C302.762 57.686 302.097 56.7932 301.573 55.6296L299.749 56.4504ZM302.279 59.8824C303.403 60.8124 304.754 61.264 306.277 61.264V59.264C305.176 59.264 304.287 58.9476 303.555 58.3416L302.279 59.8824ZM306.277 61.264C307.644 61.264 308.89 60.9335 309.979 60.2455C311.064 59.5603 311.94 58.5547 312.628 57.2843L310.87 56.3317C310.31 57.3653 309.65 58.0877 308.911 58.5545C308.176 59.0185 307.31 59.264 306.277 59.264V61.264ZM312.628 57.2843C313.997 54.7581 314.621 51.0186 314.621 46.2H312.621C312.621 50.9174 311.997 54.2499 310.87 56.3317L312.628 57.2843ZM314.621 46.2C314.621 44.2923 314.473 42.46 314.175 40.7046L312.203 41.0394C312.481 42.676 312.621 44.3957 312.621 46.2H314.621ZM314.178 40.7227C313.911 38.9558 313.474 37.3768 312.853 35.9976L311.029 36.8184C311.56 37.9992 311.955 39.3962 312.2 41.0213L314.178 40.7227ZM312.857 36.006C312.23 34.5781 311.391 33.4022 310.323 32.5176L309.047 34.0584C309.835 34.7098 310.5 35.6139 311.025 36.81L312.857 36.006ZM310.323 32.5176C309.194 31.5839 307.825 31.136 306.277 31.136V33.136C307.417 33.136 308.32 33.4561 309.047 34.0584L310.323 32.5176ZM306.277 31.136C304.923 31.136 303.689 31.4678 302.608 32.1566C301.532 32.8422 300.661 33.8472 299.974 35.1157L301.732 36.0683C302.293 35.0328 302.95 34.3098 303.682 33.8434C304.409 33.3802 305.263 33.136 306.277 33.136V31.136ZM299.974 35.1157C298.605 37.6419 297.981 41.3814 297.981 46.2H299.981C299.981 41.4826 300.605 38.1501 301.732 36.0683L299.974 35.1157ZM327.677 41.688L326.745 42.0521L326.771 42.1181L326.806 42.1798L327.677 41.688ZM325.613 36.408L326.544 36.0439L326.296 35.408H325.613V36.408ZM325.469 36.408V35.408H324.364L324.474 36.5075L325.469 36.408ZM325.997 41.688H326.997V41.6381L326.992 41.5885L325.997 41.688ZM325.997 63V64H326.997V63H325.997ZM322.541 63H321.541V64H322.541V63ZM322.541 28.872V27.872H321.541V28.872H322.541ZM324.701 28.872L325.569 28.3765L325.282 27.872H324.701V28.872ZM337.133 50.664L338.064 50.3003L338.038 50.2321L338.001 50.1685L337.133 50.664ZM339.101 55.704L338.169 56.0677L338.418 56.704H339.101V55.704ZM339.293 55.704V56.704H340.403L340.287 55.5998L339.293 55.704ZM338.765 50.664H337.765V50.7162L337.77 50.7682L338.765 50.664ZM338.765 29.4V28.4H337.765V29.4H338.765ZM342.221 29.4H343.221V28.4H342.221V29.4ZM342.221 63.528V64.528H343.221V63.528H342.221ZM340.013 63.528L339.142 64.0198L339.429 64.528H340.013V63.528ZM328.608 41.3239L326.544 36.0439L324.681 36.7721L326.745 42.0521L328.608 41.3239ZM325.613 35.408H325.469V37.408H325.613V35.408ZM324.474 36.5075L325.002 41.7875L326.992 41.5885L326.464 36.3085L324.474 36.5075ZM324.997 41.688V63H326.997V41.688H324.997ZM325.997 62H322.541V64H325.997V62ZM323.541 63V28.872H321.541V63H323.541ZM322.541 29.872H324.701V27.872H322.541V29.872ZM323.832 29.3675L336.264 51.1595L338.001 50.1685L325.569 28.3765L323.832 29.3675ZM336.201 51.0277L338.169 56.0677L340.032 55.3403L338.064 50.3003L336.201 51.0277ZM339.101 56.704H339.293V54.704H339.101V56.704ZM340.287 55.5998L339.759 50.5598L337.77 50.7682L338.298 55.8082L340.287 55.5998ZM339.765 50.664V29.4H337.765V50.664H339.765ZM338.765 30.4H342.221V28.4H338.765V30.4ZM341.221 29.4V63.528H343.221V29.4H341.221ZM342.221 62.528H340.013V64.528H342.221V62.528ZM340.883 63.0362L328.547 41.1962L326.806 42.1798L339.142 64.0198L340.883 63.0362ZM366.081 32.712V33.712H367.081V32.712H366.081ZM357.825 32.712V31.712H356.825V32.712H357.825ZM357.825 63V64H358.825V63H357.825ZM354.225 63H353.225V64H354.225V63ZM354.225 32.712H355.225V31.712H354.225V32.712ZM345.969 32.712H344.969V33.712H345.969V32.712ZM345.969 29.4V28.4H344.969V29.4H345.969ZM366.081 29.4H367.081V28.4H366.081V29.4ZM366.081 31.712H357.825V33.712H366.081V31.712ZM356.825 32.712V63H358.825V32.712H356.825ZM357.825 62H354.225V64H357.825V62ZM355.225 63V32.712H353.225V63H355.225ZM354.225 31.712H345.969V33.712H354.225V31.712ZM346.969 32.712V29.4H344.969V32.712H346.969ZM345.969 30.4H366.081V28.4H345.969V30.4ZM365.081 29.4V32.712H367.081V29.4H365.081ZM385.246 29.4V28.4H384.246V29.4H385.246ZM388.702 29.4H389.702V28.4H388.702V29.4ZM386.302 60.744L385.55 60.0846L385.549 60.0855L386.302 60.744ZM372.142 60.792L371.388 61.4496L371.395 61.4572L372.142 60.792ZM369.838 29.4V28.4H368.838V29.4H369.838ZM373.438 29.4H374.438V28.4H373.438V29.4ZM374.878 58.056L375.699 57.4849L375.699 57.4849L374.878 58.056ZM376.798 59.64L376.413 60.5631L376.413 60.5631L376.798 59.64ZM383.998 57.912L383.127 57.4199L383.123 57.4272L383.119 57.4345L383.998 57.912ZM385.246 30.4H388.702V28.4H385.246V30.4ZM387.702 29.4V51.912H389.702V29.4H387.702ZM387.702 51.912C387.702 55.885 386.912 58.5315 385.55 60.0846L387.053 61.4034C388.891 59.3085 389.702 56.067 389.702 51.912H387.702ZM385.549 60.0855C384.213 61.6129 382.275 62.432 379.582 62.432V64.432C382.712 64.432 385.255 63.4591 387.054 61.4025L385.549 60.0855ZM379.582 62.432C376.347 62.432 374.195 61.5939 372.888 60.1268L371.395 61.4572C373.224 63.5101 376.032 64.432 379.582 64.432V62.432ZM372.895 60.1345C371.586 58.6349 370.838 56.2157 370.838 52.68H368.838C368.838 56.4403 369.625 59.4291 371.388 61.4495L372.895 60.1345ZM370.838 52.68V29.4H368.838V52.68H370.838ZM369.838 30.4H373.438V28.4H369.838V30.4ZM372.438 29.4V50.808H374.438V29.4H372.438ZM372.438 50.808C372.438 52.574 372.552 54.0966 372.791 55.3619L374.756 54.9901C374.548 53.8874 374.438 52.498 374.438 50.808H372.438ZM372.791 55.3619C373.033 56.6392 373.442 57.743 374.057 58.6271L375.699 57.4849C375.29 56.897 374.963 56.0808 374.756 54.9901L372.791 55.3619ZM374.057 58.6271C374.669 59.5069 375.455 60.164 376.413 60.5631L377.182 58.7169C376.604 58.476 376.11 58.0771 375.699 57.4849L374.057 58.6271ZM376.413 60.5631C377.337 60.9481 378.421 61.12 379.63 61.12V59.12C378.599 59.12 377.794 58.9719 377.182 58.7169L376.413 60.5631ZM379.63 61.12C381.996 61.12 383.853 60.2714 384.876 58.3895L383.119 57.4345C382.542 58.4966 381.487 59.12 379.63 59.12V61.12ZM384.868 58.4041C385.833 56.6979 386.246 54.1115 386.246 50.808H384.246C384.246 54.0325 383.827 56.1821 383.127 57.4199L384.868 58.4041ZM386.246 50.808V29.4H384.246V50.808H386.246Z" fill="#504C4C"/>
</g>
<rect x="474.5" y="49.5" width="3" height="13" transform="rotate(90 474.5 49.5)" fill="black" fill-opacity="0.79" stroke="#504C4C"/>
<rect x="464.5" y="31.5" width="7" height="19" fill="#3D3A3A" stroke="#504C4C"/>
<rect x="443.5" y="1.5" width="49" height="38.6" rx="6.5" fill="#686161" stroke="#504C4C" stroke-width="3"/>
</g>
<defs>
<filter id="filter0_d_1165_6" x="0" y="24" width="521" height="73.908" filterUnits="userSpaceOnUse" color-interpolation-filters="sRGB">
<feFlood flood-opacity="0" result="BackgroundImageFix"/>
<feColorMatrix in="SourceAlpha" type="matrix" values="0 0 0 0 0 0 0 0 0 0 0 0 0 0 0 0 0 0 127 0" result="hardAlpha"/>
<feOffset dy="4"/>
<feGaussianBlur stdDeviation="2"/>
<feComposite in2="hardAlpha" operator="out"/>
<feColorMatrix type="matrix" values="0 0 0 0 0 0 0 0 0 0 0 0 0 0 0 0 0 0 0.25 0"/>
<feBlend mode="normal" in2="BackgroundImageFix" result="effect1_dropShadow_1165_6"/>
<feBlend mode="normal" in="SourceGraphic" in2="effect1_dropShadow_1165_6" result="shape"/>
</filter>
</defs>
</svg>
