<svg width="1435" height="1062" viewBox="0 0 1435 1062" fill="none" xmlns="http://www.w3.org/2000/svg">
<rect width="1434" height="1062" fill="#2E3039"/>
<path d="M1435 338L1372 338C1185.33 338 1034 186.672 1034 -3.50565e-05L1435 0L1435 338Z" fill="#FF9003"/>
<path d="M154.418 20.6598C164.625 22.7379 173.177 32.4356 171.867 42.2027C170.557 51.9004 159.384 61.5982 155.108 73.097C150.763 84.5957 153.384 97.9648 148.694 107.801C144.074 117.568 132.28 123.872 121.108 122.902C109.935 122.001 99.5214 113.758 92.0041 104.892C84.4178 96.0252 79.866 86.5353 81.2453 78.0151C82.6247 69.5642 90.004 62.1523 92.4868 52.6624C94.9006 43.1724 94.7243 37.8934 98.5864 33.7372C102.448 29.5811 112.724 24.178 123.759 23.0004C134.725 21.7536 144.142 18.651 154.418 20.6598Z" fill="#FF9003"/>
</svg>
