<svg width="1434" height="1067" viewBox="0 0 1434 1067" fill="none" xmlns="http://www.w3.org/2000/svg">
<rect width="1434" height="1062" fill="#2E3039"/>
<path d="M0 729H63C249.672 729 401 880.328 401 1067H0V729Z" fill="#FF9003"/>
<path d="M1262.46 760.621C1277.26 763.621 1289.66 777.621 1287.76 791.721C1285.86 805.721 1269.66 819.721 1263.46 836.321C1257.16 852.921 1260.96 872.221 1254.16 886.421C1247.46 900.521 1230.36 909.621 1214.16 908.221C1197.96 906.921 1182.86 895.021 1171.96 882.221C1160.96 869.421 1154.36 855.721 1156.36 843.421C1158.36 831.221 1169.06 820.521 1172.66 806.821C1176.16 793.121 1175.9 785.5 1181.5 779.5C1187.1 773.5 1202 765.7 1218 764C1233.9 762.2 1247.56 757.721 1262.46 760.621Z" fill="#FF9003"/>
<path d="M1187.25 733.055C1189.23 736.914 1188.31 742.208 1184.81 744.311C1181.33 746.397 1175.28 745.274 1170.44 746.861C1165.59 748.426 1161.94 752.741 1157.53 753.763C1153.17 754.79 1148.06 752.586 1145.47 748.7C1142.85 744.832 1142.81 739.309 1143.73 734.567C1144.63 729.803 1146.52 725.864 1149.63 724.106C1152.73 722.366 1157.05 722.847 1160.77 721.197C1164.47 719.524 1166.14 718.099 1168.49 718.279C1170.84 718.459 1175.26 720.403 1178.51 723.687C1181.77 726.932 1185.22 729.192 1187.25 733.055Z" fill="#FF9003"/>
</svg>
