<svg width="117" height="150" viewBox="0 0 117 150" fill="none" xmlns="http://www.w3.org/2000/svg">
<g clip-path="url(#clip0_134_2)">
<path d="M34.03 147.17H82.08" stroke="#CAC5C5" stroke-width="4" stroke-miterlimit="10"/>
<path d="M1.63 66.18V119.1" stroke="#CAC5C5" stroke-width="3" stroke-miterlimit="10"/>
<path d="M32.8601 138.24L0.810059 117.58" stroke="#CAC5C5" stroke-width="3" stroke-miterlimit="10"/>
<path d="M67.93 71.41L28.49 43.71" stroke="#CAC5C5" stroke-width="3" stroke-miterlimit="10"/>
<path d="M30.57 43.57L0.949951 67.57" stroke="#CAC5C5" stroke-width="3" stroke-miterlimit="10"/>
<path d="M47.3199 42.33H69.4699" stroke="#CAC5C5" stroke-width="3" stroke-miterlimit="10"/>
<path d="M51.4699 43.28L40.5699 145.88" stroke="#CAC5C5" stroke-width="3" stroke-miterlimit="10"/>
<path d="M30.79 138.35L71.47 101.87" stroke="#CAC5C5" stroke-width="3" stroke-miterlimit="10"/>
<path d="M115 66.32V119.24" stroke="#CAC5C5" stroke-width="3" stroke-miterlimit="10"/>
<path d="M83.77 138.38L115.82 117.72" stroke="#CAC5C5" stroke-width="3" stroke-miterlimit="10"/>
<path d="M48.7 71.55L88.1399 43.85" stroke="#CAC5C5" stroke-width="3" stroke-miterlimit="10"/>
<path d="M86.0601 43.71L115.68 67.71" stroke="#CAC5C5" stroke-width="3" stroke-miterlimit="10"/>
<path d="M65.3101 42.81L76.2801 145.99" stroke="#CAC5C5" stroke-width="3" stroke-miterlimit="10"/>
<path d="M85.84 138.49L45.16 102.01" stroke="#CAC5C5" stroke-width="3" stroke-miterlimit="10"/>
<path d="M47.1801 77.69L70.1301 93.97" stroke="#CAC5C5" stroke-width="3" stroke-miterlimit="10"/>
<path d="M69.45 77.18L46.75 93.97" stroke="#CAC5C5" stroke-width="3" stroke-miterlimit="10"/>
<path d="M48.38 12.04L48.47 11.97C49.0403 11.4284 49.6559 10.9366 50.31 10.5C60.59 2.14 59.07 9.53674e-09 59.07 9.53674e-09C66.07 4.12 60.81 8.55 60.81 8.55L57.35 13.55C55.88 16.36 55.07 19.43 55.85 21.99C57.79 28.35 63.4 26.7 67.44 24.53C71.48 22.36 70.62 16.97 70.59 16.76C71.5463 19.0756 71.8522 21.6083 71.4748 24.085C71.0974 26.5617 70.051 28.8883 68.4484 30.814C66.8459 32.7396 64.748 34.1913 62.3811 35.0123C60.0142 35.8333 57.468 35.9925 55.0173 35.4728C52.5665 34.953 50.3041 33.7741 48.4742 32.0631C46.6442 30.352 45.3161 28.1739 44.6331 25.7635C43.9501 23.3532 43.9381 20.8021 44.5984 18.3854C45.2587 15.9687 46.5662 13.7782 48.38 12.05V12.04Z" fill="#CAC5C5"/>
<path d="M57.2 34.51V42.33" stroke="#CAC5C5" stroke-width="5" stroke-miterlimit="10"/>
</g>
<defs>
<clipPath id="clip0_134_2">
<rect width="116.63" height="149.17" fill="white"/>
</clipPath>
</defs>
</svg>
